<?xml version="1.0" encoding="UTF-8"?>
<svg version="1.1" xmlns="http://www.w3.org/2000/svg" width="1024" height="1024">
<path d="M0 0 C337.92 0 675.84 0 1024 0 C1024 337.92 1024 675.84 1024 1024 C686.08 1024 348.16 1024 0 1024 C0 686.08 0 348.16 0 0 Z " fill="#FEFBF6" transform="translate(0,0)"/>
<path d="M0 0 C1.21671387 0.0012085 2.43342773 0.00241699 3.68701172 0.00366211 C58.0181096 0.15003976 108.95095157 14.31490714 155.1875 43.375 C156.21488281 44.01695312 157.24226563 44.65890625 158.30078125 45.3203125 C182.51841519 60.98476314 205.46854329 80.56144272 223.1875 103.375 C224.04096472 104.42870968 224.8965389 105.48071331 225.75390625 106.53125 C237.06831221 120.49435718 246.78917729 135.49475162 255.1875 151.375 C255.69724365 152.33672119 255.69724365 152.33672119 256.21728516 153.31787109 C277.27073567 193.40098276 287.34163317 236.09032128 287.4302063 281.30932617 C287.4351142 283.45631571 287.44503116 285.60329901 287.45968628 287.75024414 C287.53758094 300.14209205 287.11471085 311.69702963 284.75 323.875 C282.87678776 334.88841243 286.3679501 341.49531089 292.63818359 350.47143555 C294.08267101 352.45191846 295.53989807 354.42316803 297.00927734 356.38525391 C300.59202739 361.30280122 303.70574737 366.49806598 306.875 371.6875 C308.12632546 373.6956209 309.38018651 375.70216425 310.63671875 377.70703125 C311.23661621 378.66561035 311.83651367 379.62418945 312.45458984 380.61181641 C315.49833993 385.46517841 318.56180693 390.30602399 321.62524414 395.14697266 C326.35430047 402.62588475 331.05048186 410.12530377 335.7265625 417.63745117 C338.58619148 422.22961318 341.45708912 426.81121368 344.3984375 431.3515625 C344.87458496 432.09253174 345.35073242 432.83350098 345.84130859 433.59692383 C346.71337717 434.95120805 347.59344136 436.30039036 348.48291016 437.64331055 C349.46300721 439.17295753 350.3369985 440.76967843 351.1875 442.375 C349.84886631 446.39090108 348.13449291 446.88086365 344.51171875 449.0078125 C343.92335739 449.3568866 343.33499603 449.70596069 342.72880554 450.06561279 C340.78214967 451.2184234 338.82858355 452.3589757 336.875 453.5 C335.5138807 454.30382674 334.15337353 455.10869081 332.79345703 455.91455078 C330.69076469 457.16044322 328.58772762 458.40570381 326.48278809 459.64779663 C320.05947293 463.43911429 313.68087217 467.30137279 307.31246948 471.184021 C305.56902739 472.2460239 303.82400078 473.30537003 302.07836914 474.36376953 C296.77464479 477.58029038 291.47912614 480.80849616 286.203125 484.0703125 C284.40627386 485.17191391 282.60940038 486.2734789 280.8125 487.375 C279.61826416 488.12305908 279.61826416 488.12305908 278.39990234 488.88623047 C270.6484652 493.61428549 270.6484652 493.61428549 266.1875 493.375 C262.77819011 491.83269315 259.73643759 489.81755764 256.625 487.75 C254.7633252 486.5542135 252.90133623 485.35891603 251.0390625 484.1640625 C250.08161133 483.54176758 249.12416016 482.91947266 248.13769531 482.27832031 C243.30126414 479.15809378 238.39913176 476.14541494 233.5 473.125 C232.59757568 472.56474121 231.69515137 472.00448242 230.76538086 471.42724609 C229.93143799 470.90984863 229.09749512 470.39245117 228.23828125 469.859375 C227.50262939 469.40272461 226.76697754 468.94607422 226.0090332 468.47558594 C224.18577966 467.34089991 224.18577966 467.34089991 222.1875 466.375 C221.8471875 467.179375 221.8471875 467.179375 221.5 468 C219.75367944 471.16000863 217.5472151 473.6426983 215.1875 476.375 C215.90107666 476.63893555 216.61465332 476.90287109 217.34985352 477.17480469 C220.29632277 478.42102708 222.86960821 479.89617086 225.58984375 481.578125 C226.63503174 482.22281738 227.68021973 482.86750977 228.75708008 483.53173828 C229.86849365 484.22251465 230.97990723 484.91329102 232.125 485.625 C233.28190484 486.33746723 234.43905295 487.04953959 235.59643555 487.76123047 C241.32833327 491.29585855 247.0072175 494.89057703 252.6171875 498.6171875 C253.61113525 499.27170898 254.60508301 499.92623047 255.62915039 500.60058594 C257.51128666 501.8458466 259.38336988 503.10646694 261.24389648 504.38378906 C262.50955444 505.21861816 262.50955444 505.21861816 263.80078125 506.0703125 C264.89579956 506.8130542 264.89579956 506.8130542 266.01293945 507.57080078 C268.22210936 508.62986553 268.22210936 508.62986553 270.69189453 507.67163086 C272.99947509 506.47269128 275.26800771 505.26137041 277.50390625 503.93359375 C278.33559326 503.44141357 279.16728027 502.9492334 280.02416992 502.44213867 C280.92369385 501.90435791 281.82321777 501.36657715 282.75 500.8125 C283.70817627 500.24313721 284.66635254 499.67377441 285.65356445 499.0871582 C292.83415372 494.80907974 299.98034823 490.4747318 307.12063599 486.12985229 C311.85773209 483.24781051 316.59759566 480.37033008 321.33917236 477.4956665 C322.59239674 476.7358193 323.84544287 475.97567804 325.09832764 475.215271 C328.89464885 472.91210963 332.69609123 470.61783114 336.5050354 468.33560181 C337.70482401 467.61498317 338.90290506 466.89151349 340.09921265 466.16513062 C341.75169167 465.16243857 343.41084034 464.17076289 345.0703125 463.1796875 C346.01277832 462.61233887 346.95524414 462.04499023 347.92626953 461.46044922 C348.67247559 461.10225098 349.41868164 460.74405273 350.1875 460.375 C350.8475 460.705 351.5075 461.035 352.1875 461.375 C334.6328125 485.19921875 334.6328125 485.19921875 332.90649414 487.54199219 C331.75192367 489.10896782 330.59746566 490.67602632 329.44311523 492.24316406 C326.51546345 496.21742586 323.58586608 500.19022526 320.65234375 504.16015625 C314.4134032 512.60757133 308.21691003 521.08258409 302.08178711 529.60571289 C297.58329382 535.84722765 293.02133461 542.04045014 288.44873047 548.2277832 C282.2961532 556.56289175 276.23502996 564.96349088 270.1875 573.375 C267.12983658 572.05408291 265.49729489 570.84295581 263.62890625 568.09375 C263.16750244 567.42609619 262.70609863 566.75844238 262.23071289 566.07055664 C261.74207764 565.34602295 261.25344238 564.62148926 260.75 563.875 C259.67811267 562.32090413 258.60516093 560.76754197 257.53125 559.21484375 C256.97953125 558.41288574 256.4278125 557.61092773 255.859375 556.78466797 C253.20867925 552.96422885 250.48098157 549.20076449 247.75 545.4375 C246.65884436 543.9296946 245.56769858 542.42188206 244.4765625 540.9140625 C243.38032596 539.40095644 242.28397167 537.88793568 241.1875 536.375 C234.26411901 526.82196688 227.37599595 517.24870799 220.5925293 507.59570312 C215.55785648 500.44830342 210.38528719 493.40429095 205.1875 486.375 C201.00345819 489.90777015 196.9562411 493.52384552 193 497.3125 C140.56854807 546.00857261 68.69011526 570.57571251 -2.0625 570.625 C-2.94034149 570.62567474 -3.81818298 570.62634949 -4.72262573 570.62704468 C-76.46047723 570.53993774 -145.82404483 542.61511957 -198.27441406 493.79541016 C-199.83525698 492.35398411 -201.4109711 490.93074669 -202.9921875 489.51171875 C-208.65301376 484.42065667 -213.94299635 479.23934849 -218.8125 473.375 C-219.60785156 472.4675 -220.40320313 471.56 -221.22265625 470.625 C-232.38007477 457.84617313 -242.29740494 444.04770512 -250.8125 429.375 C-251.16763672 428.77010742 -251.52277344 428.16521484 -251.88867188 427.54199219 C-269.04117791 398.24598752 -281.18067286 365.90523012 -286.8125 332.375 C-286.96203125 331.51003906 -287.1115625 330.64507812 -287.265625 329.75390625 C-292.25822489 299.41095005 -292.27590783 265.64643629 -286.8125 235.375 C-286.52246094 233.7669751 -286.52246094 233.7669751 -286.2265625 232.12646484 C-281.60040737 207.52859832 -273.88243198 183.8230856 -262.8125 161.375 C-262.37067383 160.46830566 -261.92884766 159.56161133 -261.47363281 158.62744141 C-254.33999769 144.09954774 -246.1612127 130.58093533 -236.8125 117.375 C-236.37808594 116.76060059 -235.94367188 116.14620117 -235.49609375 115.51318359 C-233.0281488 112.05663529 -230.45665709 108.6981269 -227.8125 105.375 C-226.69681641 103.95380859 -226.69681641 103.95380859 -225.55859375 102.50390625 C-219.55935329 95.13394731 -213.00816463 88.36488574 -206.3125 81.625 C-205.44657227 80.74980713 -204.58064453 79.87461426 -203.68847656 78.97290039 C-197.70608828 73.01921946 -191.43996707 67.59737284 -184.8125 62.375 C-184.13251953 61.83568848 -183.45253906 61.29637695 -182.75195312 60.74072266 C-158.78413639 41.94057012 -131.62063679 26.39242359 -102.8125 16.375 C-101.38647461 15.87709961 -101.38647461 15.87709961 -99.93164062 15.36914062 C-87.10974144 10.97988419 -74.16802468 7.58875741 -60.875 5 C-59.65707764 4.7613623 -58.43915527 4.52272461 -57.18432617 4.27685547 C-38.12888559 0.75057269 -19.35067657 -0.03555173 0 0 Z " fill="#F9BF33" transform="translate(511.8125,113.625)"/>
<path d="M0 0 C1.21671387 0.0012085 2.43342773 0.00241699 3.68701172 0.00366211 C58.0181096 0.15003976 108.95095157 14.31490714 155.1875 43.375 C156.21488281 44.01695312 157.24226563 44.65890625 158.30078125 45.3203125 C182.51841519 60.98476314 205.46854329 80.56144272 223.1875 103.375 C224.04096472 104.42870968 224.8965389 105.48071331 225.75390625 106.53125 C237.06831221 120.49435718 246.78917729 135.49475162 255.1875 151.375 C255.69724365 152.33672119 255.69724365 152.33672119 256.21728516 153.31787109 C277.27073567 193.40098276 287.34163317 236.09032128 287.4302063 281.30932617 C287.4351142 283.45631571 287.44503116 285.60329901 287.45968628 287.75024414 C287.53758094 300.14209205 287.11471085 311.69702963 284.75 323.875 C282.87678776 334.88841243 286.3679501 341.49531089 292.63818359 350.47143555 C294.08267101 352.45191846 295.53989807 354.42316803 297.00927734 356.38525391 C300.59202739 361.30280122 303.70574737 366.49806598 306.875 371.6875 C308.12632546 373.6956209 309.38018651 375.70216425 310.63671875 377.70703125 C311.23661621 378.66561035 311.83651367 379.62418945 312.45458984 380.61181641 C315.49833993 385.46517841 318.56180693 390.30602399 321.62524414 395.14697266 C326.35430047 402.62588475 331.05048186 410.12530377 335.7265625 417.63745117 C338.58619148 422.22961318 341.45708912 426.81121368 344.3984375 431.3515625 C344.87458496 432.09253174 345.35073242 432.83350098 345.84130859 433.59692383 C346.71337717 434.95120805 347.59344136 436.30039036 348.48291016 437.64331055 C349.46300721 439.17295753 350.3369985 440.76967843 351.1875 442.375 C349.84886631 446.39090108 348.13449291 446.88086365 344.51171875 449.0078125 C343.92335739 449.3568866 343.33499603 449.70596069 342.72880554 450.06561279 C340.78214967 451.2184234 338.82858355 452.3589757 336.875 453.5 C335.5138807 454.30382674 334.15337353 455.10869081 332.79345703 455.91455078 C330.69076469 457.16044322 328.58772762 458.40570381 326.48278809 459.64779663 C320.05947293 463.43911429 313.68087217 467.30137279 307.31246948 471.184021 C305.56902739 472.2460239 303.82400078 473.30537003 302.07836914 474.36376953 C296.77464479 477.58029038 291.47912614 480.80849616 286.203125 484.0703125 C284.40627386 485.17191391 282.60940038 486.2734789 280.8125 487.375 C279.61826416 488.12305908 279.61826416 488.12305908 278.39990234 488.88623047 C270.6484652 493.61428549 270.6484652 493.61428549 266.1875 493.375 C262.77819011 491.83269315 259.73643759 489.81755764 256.625 487.75 C254.7633252 486.5542135 252.90133623 485.35891603 251.0390625 484.1640625 C250.08161133 483.54176758 249.12416016 482.91947266 248.13769531 482.27832031 C243.30126414 479.15809378 238.39913176 476.14541494 233.5 473.125 C232.59757568 472.56474121 231.69515137 472.00448242 230.76538086 471.42724609 C229.93143799 470.90984863 229.09749512 470.39245117 228.23828125 469.859375 C227.50262939 469.40272461 226.76697754 468.94607422 226.0090332 468.47558594 C224.18577966 467.34089991 224.18577966 467.34089991 222.1875 466.375 C221.8471875 467.179375 221.8471875 467.179375 221.5 468 C219.75367944 471.16000863 217.5472151 473.6426983 215.1875 476.375 C215.90107666 476.63893555 216.61465332 476.90287109 217.34985352 477.17480469 C220.29632277 478.42102708 222.86960821 479.89617086 225.58984375 481.578125 C226.63503174 482.22281738 227.68021973 482.86750977 228.75708008 483.53173828 C229.86849365 484.22251465 230.97990723 484.91329102 232.125 485.625 C233.28190484 486.33746723 234.43905295 487.04953959 235.59643555 487.76123047 C241.32833327 491.29585855 247.0072175 494.89057703 252.6171875 498.6171875 C253.61113525 499.27170898 254.60508301 499.92623047 255.62915039 500.60058594 C257.51128666 501.8458466 259.38336988 503.10646694 261.24389648 504.38378906 C262.50955444 505.21861816 262.50955444 505.21861816 263.80078125 506.0703125 C264.89579956 506.8130542 264.89579956 506.8130542 266.01293945 507.57080078 C268.22210936 508.62986553 268.22210936 508.62986553 270.69189453 507.67163086 C272.99947509 506.47269128 275.26800771 505.26137041 277.50390625 503.93359375 C278.33559326 503.44141357 279.16728027 502.9492334 280.02416992 502.44213867 C280.92369385 501.90435791 281.82321777 501.36657715 282.75 500.8125 C283.70817627 500.24313721 284.66635254 499.67377441 285.65356445 499.0871582 C292.83415372 494.80907974 299.98034823 490.4747318 307.12063599 486.12985229 C311.85773209 483.24781051 316.59759566 480.37033008 321.33917236 477.4956665 C322.59239674 476.7358193 323.84544287 475.97567804 325.09832764 475.215271 C328.89464885 472.91210963 332.69609123 470.61783114 336.5050354 468.33560181 C337.70482401 467.61498317 338.90290506 466.89151349 340.09921265 466.16513062 C341.75169167 465.16243857 343.41084034 464.17076289 345.0703125 463.1796875 C346.01277832 462.61233887 346.95524414 462.04499023 347.92626953 461.46044922 C348.67247559 461.10225098 349.41868164 460.74405273 350.1875 460.375 C350.8475 460.705 351.5075 461.035 352.1875 461.375 C334.6328125 485.19921875 334.6328125 485.19921875 332.90649414 487.54199219 C331.75192367 489.10896782 330.59746566 490.67602632 329.44311523 492.24316406 C326.51546345 496.21742586 323.58586608 500.19022526 320.65234375 504.16015625 C314.4134032 512.60757133 308.21691003 521.08258409 302.08178711 529.60571289 C297.58329382 535.84722765 293.02133461 542.04045014 288.44873047 548.2277832 C282.2961532 556.56289175 276.23502996 564.96349088 270.1875 573.375 C267.12983658 572.05408291 265.49729489 570.84295581 263.62890625 568.09375 C263.16750244 567.42609619 262.70609863 566.75844238 262.23071289 566.07055664 C261.74207764 565.34602295 261.25344238 564.62148926 260.75 563.875 C259.67811267 562.32090413 258.60516093 560.76754197 257.53125 559.21484375 C256.97953125 558.41288574 256.4278125 557.61092773 255.859375 556.78466797 C253.20867925 552.96422885 250.48098157 549.20076449 247.75 545.4375 C246.65884436 543.9296946 245.56769858 542.42188206 244.4765625 540.9140625 C243.38032596 539.40095644 242.28397167 537.88793568 241.1875 536.375 C234.26411901 526.82196688 227.37599595 517.24870799 220.5925293 507.59570312 C215.55785648 500.44830342 210.38528719 493.40429095 205.1875 486.375 C201.00345819 489.90777015 196.9562411 493.52384552 193 497.3125 C140.56854807 546.00857261 68.69011526 570.57571251 -2.0625 570.625 C-2.94034149 570.62567474 -3.81818298 570.62634949 -4.72262573 570.62704468 C-76.46047723 570.53993774 -145.82404483 542.61511957 -198.27441406 493.79541016 C-199.83525698 492.35398411 -201.4109711 490.93074669 -202.9921875 489.51171875 C-208.65301376 484.42065667 -213.94299635 479.23934849 -218.8125 473.375 C-219.60785156 472.4675 -220.40320313 471.56 -221.22265625 470.625 C-232.38007477 457.84617313 -242.29740494 444.04770512 -250.8125 429.375 C-251.16763672 428.77010742 -251.52277344 428.16521484 -251.88867188 427.54199219 C-269.04117791 398.24598752 -281.18067286 365.90523012 -286.8125 332.375 C-286.96203125 331.51003906 -287.1115625 330.64507812 -287.265625 329.75390625 C-292.25822489 299.41095005 -292.27590783 265.64643629 -286.8125 235.375 C-286.52246094 233.7669751 -286.52246094 233.7669751 -286.2265625 232.12646484 C-281.60040737 207.52859832 -273.88243198 183.8230856 -262.8125 161.375 C-262.37067383 160.46830566 -261.92884766 159.56161133 -261.47363281 158.62744141 C-254.33999769 144.09954774 -246.1612127 130.58093533 -236.8125 117.375 C-236.37808594 116.76060059 -235.94367188 116.14620117 -235.49609375 115.51318359 C-233.0281488 112.05663529 -230.45665709 108.6981269 -227.8125 105.375 C-226.69681641 103.95380859 -226.69681641 103.95380859 -225.55859375 102.50390625 C-219.55935329 95.13394731 -213.00816463 88.36488574 -206.3125 81.625 C-205.44657227 80.74980713 -204.58064453 79.87461426 -203.68847656 78.97290039 C-197.70608828 73.01921946 -191.43996707 67.59737284 -184.8125 62.375 C-184.13251953 61.83568848 -183.45253906 61.29637695 -182.75195312 60.74072266 C-158.78413639 41.94057012 -131.62063679 26.39242359 -102.8125 16.375 C-101.38647461 15.87709961 -101.38647461 15.87709961 -99.93164062 15.36914062 C-87.10974144 10.97988419 -74.16802468 7.58875741 -60.875 5 C-59.65707764 4.7613623 -58.43915527 4.52272461 -57.18432617 4.27685547 C-38.12888559 0.75057269 -19.35067657 -0.03555173 0 0 Z M-56.1875 44.0625 C-57.32888428 44.32305176 -58.47026855 44.58360352 -59.64624023 44.85205078 C-95.33075763 53.2545605 -127.968148 69.90930164 -156.8125 92.375 C-157.66714844 93.035 -158.52179688 93.695 -159.40234375 94.375 C-165.38193107 99.12270241 -170.98771576 104.22455081 -176.5625 109.4375 C-177.27172607 110.0982251 -177.98095215 110.7589502 -178.71166992 111.43969727 C-183.38023079 115.85135337 -187.67406632 120.46494241 -191.8125 125.375 C-192.34149902 125.99785889 -192.87049805 126.62071777 -193.41552734 127.26245117 C-204.73461168 140.69529808 -214.60120738 154.82270253 -222.8125 170.375 C-223.22612793 171.15214355 -223.63975586 171.92928711 -224.06591797 172.72998047 C-242.0637205 207.03562016 -249.97828484 243.49792901 -250.05273438 282.07519531 C-250.06243627 285.10509749 -250.09355277 288.13431859 -250.125 291.1640625 C-250.18874249 302.93868417 -249.28231774 313.87068334 -246.8125 325.375 C-246.49769541 327.12757336 -246.18913499 328.88129655 -245.890625 330.63671875 C-240.17061988 361.89944618 -227.49566577 391.04107687 -209.8125 417.375 C-209.28527344 418.16519531 -208.75804687 418.95539063 -208.21484375 419.76953125 C-195.65042355 438.15576317 -180.75197125 454.91656241 -163.8125 469.375 C-162.81992187 470.24511719 -161.82734375 471.11523438 -160.8046875 472.01171875 C-154.13964985 477.81204889 -147.37350372 482.76845547 -139.8125 487.375 C-136.21244111 489.74909289 -133.24381635 491.72802548 -130.8125 495.375 C-129.15146725 495.73535965 -127.4836616 496.06498741 -125.8125 496.375 C-123.2421875 497.75 -123.2421875 497.75 -120.6875 499.375 C-118.00377583 501.07170099 -115.83479222 502.36756926 -112.8125 503.375 C-112.379375 503.87 -111.94625 504.365 -111.5 504.875 C-109.86973204 506.59909466 -109.86973204 506.59909466 -107.3125 506.75 C-104.09172301 507.32513875 -102.09181149 508.09791859 -99.1875 509.5 C-93.75768093 512.05784865 -88.21641885 514.12834716 -82.5625 516.125 C-81.28511963 516.58350342 -81.28511963 516.58350342 -79.98193359 517.05126953 C-75.23803796 518.70490901 -70.81285198 519.86145034 -65.8125 520.375 C-65.4825 521.365 -65.1525 522.355 -64.8125 523.375 C-64.4825 522.715 -64.1525 522.055 -63.8125 521.375 C-62.90757812 521.68244141 -62.90757812 521.68244141 -61.984375 521.99609375 C-60.78554688 522.40021484 -60.78554688 522.40021484 -59.5625 522.8125 C-58.77359375 523.07933594 -57.9846875 523.34617187 -57.171875 523.62109375 C-53.86800836 524.67679948 -50.75278046 525.38353136 -47.3125 525.875 C-43.8125 526.375 -43.8125 526.375 -42.08984375 526.875 C-38.71765071 527.61537858 -35.31336756 527.70574581 -31.875 527.875 C-22.38452145 528.34473954 -22.38452145 528.34473954 -18.8125 529.375 C-18.4825 530.035 -18.1525 530.695 -17.8125 531.375 C-13.86153022 531.42439662 -9.9106797 531.46071755 -5.95947266 531.48486328 C-3.9533864 531.49988107 -1.94738676 531.52528981 0.05859375 531.55078125 C1.31542969 531.55722656 2.57226562 531.56367187 3.8671875 531.5703125 C5.02976074 531.58078613 6.19233398 531.59125977 7.39013672 531.60205078 C10.32660279 531.66761997 10.32660279 531.66761997 12.1875 529.375 C14.53833008 528.87255859 14.53833008 528.87255859 17.45703125 528.5234375 C18.51083984 528.39453125 19.56464844 528.265625 20.65039062 528.1328125 C21.75576172 528.00648438 22.86113281 527.88015625 24 527.75 C25.09376953 527.6159375 26.18753906 527.481875 27.31445312 527.34375 C40.07643415 525.81946707 40.07643415 525.81946707 43.1875 527.375 C43.64769531 526.92769531 44.10789062 526.48039062 44.58203125 526.01953125 C48.42100123 523.59643326 52.46874487 522.99253456 56.875 522.0625 C66.63437774 519.85693418 75.88970519 517.05880214 85.1875 513.375 C85.99654785 513.05547363 86.8055957 512.73594727 87.63916016 512.40673828 C106.49440687 504.85962013 123.9998614 495.49138972 140.47558594 483.60791016 C142.02872182 482.48935109 143.59566389 481.39002447 145.1640625 480.29296875 C158.58570463 470.79725364 170.1248738 459.70547664 181.60620117 447.98803711 C182.79329654 446.77711553 183.98843234 445.57406766 185.1875 444.375 C187.3125 444.75 187.3125 444.75 189.1875 445.375 C189.1875 446.035 189.1875 446.695 189.1875 447.375 C191.14897874 448.76438077 193.14916576 450.1010411 195.1875 451.375 C195.8475 451.045 196.5075 450.715 197.1875 450.375 C194.09422105 447.39824541 194.09422105 447.39824541 190.1875 446.375 C191.4706032 436.42734596 197.82564021 428.27179933 203.07177734 419.93676758 C206.67352254 414.21258941 210.23415955 408.46487821 213.75 402.6875 C214.27480957 401.83808838 214.79961914 400.98867676 215.34033203 400.11352539 C215.82743652 399.30906982 216.31454102 398.50461426 216.81640625 397.67578125 C217.25025635 396.96591064 217.68410645 396.25604004 218.13110352 395.5246582 C219.29694095 393.3929977 219.29694095 393.3929977 219.65405273 390.91723633 C220.28365594 387.91675205 221.44628284 385.9777097 223.09375 383.3984375 C223.67253906 382.480625 224.25132812 381.5628125 224.84765625 380.6171875 C225.45480469 379.67101562 226.06195312 378.72484375 226.6875 377.75 C227.88811025 375.8636909 229.08614854 373.97574159 230.28125 372.0859375 C230.81427734 371.25368652 231.34730469 370.42143555 231.89648438 369.56396484 C233.50418486 366.83804907 234.23276313 364.99359613 234 361.8125 C234.18157244 358.48367187 234.73347523 356.80334064 236.03515625 353.80859375 C238.16843996 348.62573873 239.57824365 343.45820073 240.8125 338 C241.02487305 337.08025391 241.23724609 336.16050781 241.45605469 335.21289062 C245.21855265 318.68123292 246.42396779 302.42443382 246.4375 285.5 C246.43817474 284.73254456 246.43884949 283.96508911 246.43954468 283.17437744 C246.4213114 270.03244622 245.53156251 257.32628541 243.1875 244.375 C243.01057617 243.3629248 242.83365234 242.35084961 242.65136719 241.30810547 C236.15141369 204.67149363 222.89437175 170.78202075 201.1875 140.375 C200.79900879 139.82924316 200.41051758 139.28348633 200.01025391 138.72119141 C196.24545976 133.43428169 196.24545976 133.43428169 192.1875 128.375 C191.5275 128.375 190.8675 128.375 190.1875 128.375 C189.93871094 127.80910156 189.68992187 127.24320312 189.43359375 126.66015625 C182.5180963 113.97813115 168.40677138 103.14489469 157.1875 94.375 C155.93089401 93.36600443 154.67439006 92.35688178 153.41796875 91.34765625 C123.47208568 67.58045807 88.33337514 52.28744984 51.125 44.125 C49.45920898 43.75544189 49.45920898 43.75544189 47.75976562 43.37841797 C32.04691892 40.07177324 16.52864026 39.04017119 0.50170898 39.11425781 C-2.2445285 39.12497864 -4.99011021 39.11428667 -7.73632812 39.1015625 C-24.15411888 39.08660921 -40.16105135 40.34918998 -56.1875 44.0625 Z " fill="#FED441" transform="translate(511.8125,113.625)"/>
<path d="M0 0 C2.22643345 0.01071923 4.4520575 0.00002842 6.6784668 -0.01269531 C20.36056506 -0.02814286 33.64980617 1.21176134 46.85620117 5.01074219 C47.79028809 5.27459717 48.724375 5.53845215 49.68676758 5.81030273 C77.03333701 13.72814873 101.89452417 27.7986531 116.10620117 53.38574219 C122.68140878 65.83108932 126.01061952 80.11930779 125.85620117 94.13574219 C125.85168945 94.91949219 125.84717773 95.70324219 125.8425293 96.51074219 C125.8308421 98.42744233 125.81291025 100.34410267 125.79370117 102.26074219 C117.74447997 102.33017455 109.69538335 102.38351865 101.64593697 102.4161787 C97.90846321 102.43185191 94.17119394 102.45311979 90.43383789 102.48706055 C86.82878478 102.51959586 83.22392865 102.53758273 79.61874008 102.54537392 C78.24156466 102.550928 76.86440032 102.56177354 75.4873085 102.57793236 C73.56236486 102.59962654 71.63722405 102.6009669 69.7121582 102.60131836 C68.61517609 102.60798019 67.51819397 102.61464203 66.38796997 102.62150574 C65.53186127 102.50245377 64.67575256 102.38340179 63.79370117 102.26074219 C61.64951095 99.04445685 61.24838301 97.01904532 60.54370117 93.26074219 C58.05338578 82.17760586 53.2190346 73.79285618 43.79370117 67.26074219 C25.3208338 56.59893293 -0.34709844 53.67116709 -21.01879883 58.88574219 C-32.67466561 62.35230568 -42.0555807 67.49060052 -48.36254883 78.22949219 C-51.69069215 85.74863081 -51.00793802 93.69312042 -48.26879883 101.26074219 C-47.59127248 102.93148815 -46.9052977 104.59886535 -46.20629883 106.26074219 C-45.87629883 107.25074219 -45.54629883 108.24074219 -45.20629883 109.26074219 C-44.54629883 109.26074219 -43.88629883 109.26074219 -43.20629883 109.26074219 C-42.01202799 110.72978138 -40.81875534 112.19965229 -39.63238525 113.67507935 C-31.79747209 122.38670471 -17.62093333 125.90273338 -6.83129883 129.32324219 C-5.22363878 129.84569739 -3.61630204 130.36914844 -2.00927734 130.89355469 C6.56761673 133.67587284 15.18015612 136.30363207 23.85620117 138.76074219 C33.15266024 141.39355743 42.33170001 144.32922166 51.48458862 147.41992188 C52.98987183 147.9272997 54.49643349 148.43090507 56.00442505 148.93017578 C66.77590309 152.50611357 76.76384641 156.9621109 86.79370117 162.26074219 C88.07395591 162.92491045 89.35438908 163.58873489 90.63500977 164.25219727 C108.90431767 173.85338104 123.29406571 189.87884931 129.89526367 209.54199219 C136.05032338 234.62242238 132.17147962 262.34400754 119.43823242 284.65136719 C102.37102223 311.73188123 76.00793384 325.00657595 45.79370117 332.26074219 C45.05361816 332.4415332 44.31353516 332.62232422 43.55102539 332.80859375 C31.0685002 335.67886126 18.34393162 335.54202405 5.60620117 335.57324219 C4.75561127 335.57700867 3.90502136 335.58077515 3.02865601 335.58465576 C-12.60904647 335.61969802 -27.81772095 334.56125157 -43.01879883 330.63574219 C-44.02797363 330.37776855 -45.03714844 330.11979492 -46.0769043 329.85400391 C-73.46365678 322.56548994 -102.69444032 308.21817339 -117.68286133 283.02636719 C-125.81062399 268.2713519 -129.41397452 252.64774465 -129.33129883 235.82324219 C-129.33516602 235.00919922 -129.3390332 234.19515625 -129.34301758 233.35644531 C-129.33306105 227.38750441 -129.33306105 227.38750441 -128.20629883 226.26074219 C-126.21742389 226.16143686 -124.22499466 226.13274757 -122.23364258 226.13134766 C-120.31660522 226.12661942 -120.31660522 226.12661942 -118.36083984 226.12179565 C-116.95515916 226.12358543 -115.54947878 226.12563639 -114.14379883 226.12792969 C-112.7127277 226.1272566 -111.28165668 226.12628654 -109.85058594 226.12503052 C-106.84772658 226.12355375 -103.84489693 226.12570742 -100.84204102 226.13037109 C-96.98477312 226.13606838 -93.12757479 226.13278926 -89.27030945 226.12679863 C-86.31416292 226.12319245 -83.358033 226.12433186 -80.40188599 226.12692642 C-78.97925814 226.12759553 -77.5566288 226.12676782 -76.13400269 226.12444687 C-74.14898709 226.12191945 -72.16396624 226.12645176 -70.17895508 226.13134766 C-68.48138062 226.13254105 -68.48138062 226.13254105 -66.74951172 226.13375854 C-64.20629883 226.26074219 -64.20629883 226.26074219 -63.20629883 227.26074219 C-62.98300582 229.32167626 -62.77826995 231.38462609 -62.58129883 233.44824219 C-60.76959909 246.52978001 -54.2195163 258.01533598 -43.78051758 266.15136719 C-29.17343706 276.10582206 -13.61050682 279.63530223 3.82324219 279.63134766 C5.96070373 279.63570045 8.09605861 279.67207528 10.2331543 279.70996094 C25.95076181 279.83778318 44.51405448 276.40325331 56.17651367 265.12792969 C62.62879766 257.67819116 64.27713628 247.65666463 63.66870117 238.01074219 C62.58077261 230.37079443 59.42152404 224.91326855 53.43432617 220.04589844 C50.16735067 217.83730701 46.80639941 215.98453394 43.29370117 214.19824219 C42.69654297 213.89402344 42.09938477 213.58980469 41.48413086 213.27636719 C28.44278642 206.95248252 14.55347945 202.86367245 0.66622925 198.88122559 C-91.20607093 172.46465916 -91.20607093 172.46465916 -108.26196289 142.39990234 C-109.37267648 140.31089479 -110.42572118 138.20287762 -111.45629883 136.07324219 C-111.77356934 135.42742187 -112.09083984 134.78160156 -112.41772461 134.11621094 C-117.82600346 122.33906562 -119.88362319 110.68383071 -119.7277832 97.85400391 C-119.70629677 95.76054206 -119.72774642 93.67050901 -119.75317383 91.57714844 C-119.78081796 78.89962582 -117.17704741 67.10105526 -111.58129883 55.63574219 C-111.24211426 54.93191406 -110.90292969 54.22808594 -110.5534668 53.50292969 C-98.86957028 30.20898521 -76.70995465 15.83989652 -52.64379883 7.44824219 C-45.27707319 5.14469104 -37.82953598 3.45194774 -30.20629883 2.26074219 C-28.62449829 2.00478271 -28.62449829 2.00478271 -27.01074219 1.74365234 C-17.95241903 0.39273917 -9.14442855 -0.05211072 0 0 Z " fill="#FED440" transform="translate(507.206298828125,221.7392578125)"/>
<path d="M0 0 C15.31844762 12.17156464 25.96473895 30.19897913 28.26367188 49.73632812 C29.97438248 74.46453978 27.44437374 96.56630736 12.01367188 116.67382812 C0.6933612 129.63081022 -15.3716562 138.67707137 -32.66308594 139.95214844 C-35.91901081 140.09135901 -39.16503949 140.15332957 -42.42382812 140.17382812 C-43.45644775 140.18389893 -44.48906738 140.19396973 -45.55297852 140.2043457 C-64.10320778 139.99634711 -80.54690525 132.72558437 -93.98632812 120.04882812 C-110.22398432 103.00319867 -115.57343277 80.96414419 -115.02148438 58.09179688 C-114.188704 38.3664006 -106.23419284 18.43978929 -91.73632812 4.73632812 C-66.01503492 -17.4372005 -27.85530187 -20.27264377 0 0 Z " fill="#314054" transform="translate(609.736328125,754.263671875)"/>
<path d="M0 0 C3.77319411 1.47287863 5.17031428 3.35463283 7.25 6.77734375 C7.85199219 7.75574219 8.45398438 8.73414063 9.07421875 9.7421875 C9.70972656 10.79664063 10.34523438 11.85109375 11 12.9375 C12.35371212 15.14481008 13.70788375 17.35183841 15.0625 19.55859375 C15.73152344 20.6554248 16.40054688 21.75225586 17.08984375 22.88232422 C19.68364299 27.11581301 22.3366901 31.3100363 25 35.5 C30.17856839 43.67802752 35.30800127 51.88635355 40.43359375 60.09765625 C44.2714904 66.24299997 48.12517464 72.37788098 52 78.5 C57.21110175 86.73453234 62.38933242 94.98938353 67.5390625 103.26245117 C70.39869148 107.85461318 73.26958912 112.43621368 76.2109375 116.9765625 C76.68708496 117.71753174 77.16323242 118.45850098 77.65380859 119.22192383 C78.52587717 120.57620805 79.40594136 121.92539036 80.29541016 123.26831055 C81.27550721 124.79795753 82.1494985 126.39467843 83 128 C81.66136631 132.01590108 79.94699291 132.50586365 76.32421875 134.6328125 C75.73585739 134.9818866 75.14749603 135.33096069 74.54130554 135.69061279 C72.59464967 136.8434234 70.64108355 137.9839757 68.6875 139.125 C67.3263807 139.92882674 65.96587353 140.73369081 64.60595703 141.53955078 C62.50326469 142.78544322 60.40022762 144.03070381 58.29528809 145.27279663 C51.87197293 149.06411429 45.49337217 152.92637279 39.12496948 156.809021 C37.38152739 157.8710239 35.63650078 158.93037003 33.89086914 159.98876953 C28.58714479 163.20529038 23.29162614 166.43349616 18.015625 169.6953125 C16.21877386 170.79691391 14.42190038 171.8984789 12.625 173 C11.82884277 173.49870605 11.03268555 173.99741211 10.21240234 174.51123047 C2.47687173 179.22958317 2.47687173 179.22958317 -2 179 C-5.3484222 177.50221114 -8.32497582 175.52629384 -11.375 173.5 C-13.26681737 172.2862873 -15.15874877 171.07275233 -17.05078125 169.859375 C-18.03127441 169.22193359 -19.01176758 168.58449219 -20.02197266 167.92773438 C-24.83402057 164.81280321 -29.69927621 161.78414953 -34.5625 158.75 C-36.02550537 157.83190552 -36.02550537 157.83190552 -37.51806641 156.89526367 C-43.18304964 153.34769447 -48.87700501 149.85387101 -54.60546875 146.41015625 C-55.24339859 146.02598541 -55.88132843 145.64181458 -56.53858948 145.2460022 C-59.65871142 143.36764257 -62.78231184 141.49557182 -65.91235352 139.63378906 C-67.03955811 138.95670898 -68.1667627 138.27962891 -69.328125 137.58203125 C-70.3274707 136.98624268 -71.32681641 136.3904541 -72.35644531 135.77661133 C-74.90972241 134.06067141 -76.91449509 132.25104573 -79 130 C-77.64995878 124.07223279 -75.22041045 119.7861311 -71.875 114.75 C-66.72255983 106.79790831 -61.80865167 98.7266103 -57 90.5625 C-56.31073438 89.39471274 -55.62136269 88.22698809 -54.93188477 87.05932617 C-53.58319761 84.7743875 -52.23547881 82.48888557 -50.88818359 80.203125 C-43.30441321 67.33797535 -35.55633761 54.63967489 -27.36328125 42.15234375 C-23.79003712 36.69955011 -20.2999571 31.19540778 -16.8125 25.6875 C-11.33127032 17.04028289 -5.73372935 8.4816918 0 0 Z " fill="#1C2834" transform="translate(780,428)"/>
<path d="M0 0 C10.23 0 20.46 0 31 0 C31 48.51 31 97.02 31 147 C20.77 147 10.54 147 0 147 C-8.21976499 138.15330378 -8.21976499 138.15330378 -10.1328125 133.79296875 C-13.20421498 127.34919721 -17.15815997 121.7063861 -21.25 115.875 C-22.70279939 113.74592847 -24.15198783 111.61438872 -25.59765625 109.48046875 C-26.68651123 107.87824463 -26.68651123 107.87824463 -27.79736328 106.24365234 C-29.99050695 103.01397968 -32.18108343 99.78257923 -34.37109375 96.55078125 C-35.09458008 95.48424316 -35.81806641 94.41770508 -36.56347656 93.31884766 C-37.9065031 91.33888692 -39.24844192 89.35818756 -40.58886719 87.37646484 C-47.28671439 77.5065798 -54.15692384 67.77582309 -61 58 C-61.33 87.37 -61.66 116.74 -62 147 C-72.23 147 -82.46 147 -93 147 C-93 98.82 -93 50.64 -93 1 C-83.43 1 -73.86 1 -64 1 C-58.62903737 8.38507362 -53.40332704 15.76623097 -48.375 23.375 C-46.96887167 25.49487237 -45.56261939 27.61466254 -44.15625 29.734375 C-43.45886719 30.78689453 -42.76148438 31.83941406 -42.04296875 32.92382812 C-40.15118188 35.77235998 -38.25016087 38.61436658 -36.34375 41.453125 C-29.84306165 51.13925049 -23.46152651 60.88940042 -17.23193359 70.75244141 C-11.88750959 79.21376111 -6.43857506 87.59492946 -1 96 C-0.67 64.32 -0.34 32.64 0 0 Z " fill="#314155" transform="translate(818,744)"/>
<path d="M0 0 C7.52400978 7.97147291 12.8984375 19.16235997 12.8984375 30.19140625 C2.6684375 30.19140625 -7.5615625 30.19140625 -18.1015625 30.19140625 C-19.4215625 27.22140625 -20.7415625 24.25140625 -22.1015625 21.19140625 C-27.38474763 15.26393025 -34.19491391 13.68409586 -41.94140625 12.90625 C-49.60015323 12.65919365 -56.17491049 13.69155766 -62.1015625 18.75390625 C-65.23247188 22.56970205 -65.45239058 25.05356674 -65.375 29.875 C-64.9415908 33.54659512 -63.56029564 35.48049536 -61.1015625 38.19140625 C-55.80109836 41.59157595 -50.45195243 43.6435686 -44.4765625 45.56640625 C-43.56720947 45.86603271 -42.65785645 46.16565918 -41.72094727 46.47436523 C-36.09618794 48.30322135 -30.44049471 49.95683733 -24.7355957 51.515625 C-11.25350938 55.20687254 1.83481494 59.1257928 9.4609375 71.78515625 C15.02457207 82.53308666 15.54018589 94.8325616 13.21484375 106.671875 C9.48067096 117.65747047 1.5025622 126.31824702 -8.6015625 131.87890625 C-26.46801842 140.02946469 -49.40663948 141.5515347 -68.1015625 135.19140625 C-82.2258283 129.73748183 -91.77984952 120.1875973 -98.4140625 106.75390625 C-100.1015625 102.19140625 -100.1015625 102.19140625 -101.1015625 92.19140625 C-90.8715625 92.19140625 -80.6415625 92.19140625 -70.1015625 92.19140625 C-68.7815625 95.49140625 -67.4615625 98.79140625 -66.1015625 102.19140625 C-59.56381205 108.90120277 -51.60913861 110.26902326 -42.62939453 110.48388672 C-31.75026446 110.72248809 -31.75026446 110.72248809 -22.1015625 106.19140625 C-18.90701895 102.84103131 -17.8527111 100.2196916 -17.6015625 95.69140625 C-17.86143171 91.13605195 -18.88212961 88.56414546 -22.1015625 85.19140625 C-30.53604604 79.65475871 -40.61716104 77.29920052 -50.296875 74.890625 C-65.92648542 70.94413817 -84.01441012 65.8679036 -92.94140625 51.16015625 C-98.27053821 40.82790982 -99.8555563 30.44018854 -97.41796875 18.9765625 C-95.35449058 12.8717495 -92.3356929 8.01195377 -88.1015625 3.19140625 C-87.57304687 2.53527344 -87.04453125 1.87914062 -86.5 1.203125 C-65.58899674 -22.51750645 -22.56788158 -19.42180144 0 0 Z " fill="#314054" transform="translate(272.1015625,755.80859375)"/>
<path d="M0 0 C10.86970285 8.56955974 18.02726925 20.08000247 21.0859375 33.64453125 C21.0859375 35.62453125 21.0859375 37.60453125 21.0859375 39.64453125 C10.8559375 39.64453125 0.6259375 39.64453125 -9.9140625 39.64453125 C-11.8940625 35.68453125 -13.8740625 31.72453125 -15.9140625 27.64453125 C-23.64227692 19.4683044 -29.68239697 16.60593002 -40.8515625 16.20703125 C-52.7589164 16.53956745 -59.77910447 21.16155363 -67.9140625 29.64453125 C-78.4530403 41.21421593 -78.61234502 57.25026713 -78.09326172 72.00927734 C-77.41921989 81.92154914 -74.36055255 91.02031706 -67.9140625 98.64453125 C-67.3778125 99.27875 -66.8415625 99.91296875 -66.2890625 100.56640625 C-60.51454529 106.82213323 -53.40610805 111.28485069 -44.8125 111.84765625 C-34.94486191 111.97893303 -25.68006237 111.35153114 -17.9140625 104.64453125 C-14.05959994 99.78939091 -11.89651238 95.5918809 -9.9140625 89.64453125 C0.3159375 89.64453125 10.5459375 89.64453125 21.0859375 89.64453125 C19.40157101 104.80382964 13.10097784 117.92357284 1.3984375 127.95703125 C-14.63103898 139.8813979 -33.51514387 142.10470926 -52.9140625 140.64453125 C-56.7981208 140.03474735 -60.2559713 139.06234848 -63.9140625 137.64453125 C-64.72359375 137.37769531 -65.533125 137.11085938 -66.3671875 136.8359375 C-82.15032145 131.25228162 -95.17943526 119.37444636 -102.9140625 104.64453125 C-113.21139345 82.85984762 -115.26585956 58.3080732 -107.8125 35.234375 C-106.63553569 32.29196423 -105.33259251 29.47752671 -103.9140625 26.64453125 C-103.28564453 25.28134766 -103.28564453 25.28134766 -102.64453125 23.890625 C-95.07026878 8.54564946 -81.01597643 -3.6724403 -64.9140625 -9.35546875 C-43.34760073 -15.94226988 -18.57361252 -13.24291867 0 0 Z " fill="#314054" transform="translate(458.9140625,753.35546875)"/>
<path d="M0 0 C10.27016311 7.07978086 17.2246935 17.93365486 19.62109375 30.171875 C21.45366973 48.68656015 21.22614042 67.1128639 9.18359375 82.2890625 C2.83148156 89.14164413 -5.16558746 93.60717531 -14.5390625 94.23828125 C-25.76865155 94.54769315 -33.46268044 93.29875078 -42.25 85.75 C-54.16576179 74.28248003 -58.85284998 61.17494643 -59.3125 44.6875 C-59.02390877 30.35979414 -54.96775719 16.37117173 -44.98828125 5.75 C-32.65694956 -5.10351001 -14.63373636 -8.09271881 0 0 Z " fill="#FCF9F4" transform="translate(586,773)"/>
<path d="M0 0 C0.99 0.495 0.99 0.495 2 1 C-15.5546875 24.82421875 -15.5546875 24.82421875 -17.28100586 27.16699219 C-18.43557633 28.73396782 -19.59003434 30.30102632 -20.74438477 31.86816406 C-23.67203655 35.84242586 -26.60163392 39.81522526 -29.53515625 43.78515625 C-35.7740968 52.23257133 -41.97058997 60.70758409 -48.10571289 69.23071289 C-52.60420618 75.47222765 -57.16616539 81.66545014 -61.73876953 87.8527832 C-67.8913468 96.18789175 -73.95247004 104.58849088 -80 113 C-83.05766342 111.67908291 -84.69020511 110.46795581 -86.55859375 107.71875 C-87.01999756 107.05109619 -87.48140137 106.38344238 -87.95678711 105.69555664 C-88.44542236 104.97102295 -88.93405762 104.24648926 -89.4375 103.5 C-90.50938733 101.94590413 -91.58233907 100.39254197 -92.65625 98.83984375 C-93.20796875 98.03788574 -93.7596875 97.23592773 -94.328125 96.40966797 C-96.97882075 92.58922885 -99.70651843 88.82576449 -102.4375 85.0625 C-103.52865564 83.5546946 -104.61980142 82.04688206 -105.7109375 80.5390625 C-106.80717404 79.02595644 -107.90352833 77.51293568 -109 76 C-115.88264459 66.50317587 -122.7342194 56.9884349 -129.48071289 47.39428711 C-133.11461669 42.2340841 -136.79770704 37.11130065 -140.5 32 C-142.11824581 29.75891999 -143.73590201 27.51741526 -145.35351562 25.27587891 C-146.47434301 23.72659764 -147.59816085 22.17947642 -148.72460938 20.63427734 C-150.40757315 18.32424317 -152.07964166 16.00665856 -153.75 13.6875 C-154.26369141 12.98818359 -154.77738281 12.28886719 -155.30664062 11.56835938 C-157.7973429 8.0895536 -159.62621808 5.39193756 -160 1 C-155.65142746 2.57376911 -151.77031015 4.76595818 -147.8125 7.125 C-147.08981934 7.55312988 -146.36713867 7.98125977 -145.62255859 8.42236328 C-130.80247269 17.24698113 -116.14599005 26.35312073 -101.5625 35.5625 C-100.79550781 36.04460938 -100.02851562 36.52671875 -99.23828125 37.0234375 C-95.97366372 39.08256905 -92.73612002 41.16034426 -89.56640625 43.36328125 C-88.59574219 44.02714844 -87.62507812 44.69101562 -86.625 45.375 C-85.83351563 45.93960938 -85.04203125 46.50421875 -84.2265625 47.0859375 C-81.99544167 48.28501679 -81.99544167 48.28501679 -79.63061523 47.2097168 C-77.21897477 46.10069791 -74.96454837 44.91312673 -72.68359375 43.55859375 C-71.85190674 43.06641357 -71.02021973 42.5742334 -70.16333008 42.06713867 C-68.81404419 41.26046753 -68.81404419 41.26046753 -67.4375 40.4375 C-66.47932373 39.86813721 -65.52114746 39.29877441 -64.53393555 38.7121582 C-57.35334628 34.43407974 -50.20715177 30.0997318 -43.06686401 25.75485229 C-38.32976791 22.87281051 -33.58990434 19.99533008 -28.84832764 17.1206665 C-27.59510326 16.3608193 -26.34205713 15.60067804 -25.08917236 14.840271 C-21.29285115 12.53710963 -17.49140877 10.24283114 -13.6824646 7.96060181 C-12.48267599 7.23998317 -11.28459494 6.51651349 -10.08828735 5.79013062 C-8.43580833 4.78743857 -6.77665966 3.79576289 -5.1171875 2.8046875 C-4.17472168 2.23733887 -3.23225586 1.66999023 -2.26123047 1.08544922 C-1.51502441 0.72725098 -0.76881836 0.36905273 0 0 Z " fill="#5D7186" transform="translate(862,574)"/>
<path d="M0 0 C3.3785064 2.78910965 5.04088505 6.58592653 6.9375 10.4375 C7.29086426 11.15470215 7.64422852 11.8719043 8.00830078 12.61083984 C19.09217742 35.55093525 19.65846494 60.08660474 12.1875 84.1875 C2.97930299 110.10944329 -16.27338775 129.71747562 -40.61474609 141.86572266 C-53.88438781 148.17593304 -67.53695779 151.70042426 -82 154 C-82.68191406 154.11714355 -83.36382813 154.23428711 -84.06640625 154.35498047 C-126.67392969 161.48094053 -173.44471703 154.54707009 -210 131 C-213.87564998 128.20702147 -217.46209287 125.20797318 -221 122 C-221.49773926 121.55140625 -221.99547852 121.1028125 -222.50830078 120.640625 C-230.27745617 113.55075334 -236.01330077 106.3299534 -241 97 C-241.40130127 96.27111572 -241.80260254 95.54223145 -242.21606445 94.79125977 C-245.58017998 88.44538639 -247.59697455 82.1446573 -249.3125 75.1875 C-249.57611328 74.17751953 -249.83972656 73.16753906 -250.11132812 72.12695312 C-251.25422275 67.62958858 -252.15221085 63.66413808 -252 59 C-250.06900963 62.5037427 -248.98575586 66.12141523 -247.8125 69.9375 C-239.77900737 94.57494397 -221.66104321 110.45131013 -199 122 C-188.64508523 126.98240876 -177.93025493 130.52315814 -166.8125 133.375 C-165.88816162 133.61379883 -164.96382324 133.85259766 -164.01147461 134.09863281 C-148.9800001 137.71550367 -133.83161021 138.4113953 -118.4375 138.375 C-117.12863831 138.37418427 -117.12863831 138.37418427 -115.79333496 138.37335205 C-101.54906033 138.33269873 -87.87844502 137.44080693 -74 134 C-73.12021484 133.78569336 -72.24042969 133.57138672 -71.33398438 133.35058594 C-44.98198057 126.70941697 -20.4750294 112.64973599 -5.90283203 89.10205078 C-2.82759449 83.91575909 -0.20940135 78.60646509 2 73 C2.29519531 72.25492187 2.59039063 71.50984375 2.89453125 70.7421875 C6.66388833 60.38109761 7.36563565 49.62484788 7.3125 38.6875 C7.30831055 37.50631592 7.30412109 36.32513184 7.29980469 35.1081543 C7.14606857 23.20587115 5.97478864 12.50738692 0 2 C0 1.34 0 0.68 0 0 Z " fill="#DA8516" transform="translate(631,418)"/>
<path d="M0 0 C10.56 0 21.12 0 32 0 C32 48.18 32 96.36 32 146 C21.44 146 10.88 146 0 146 C0 97.82 0 49.64 0 0 Z " fill="#334356" transform="translate(663,745)"/>
<path d="M0 0 C0.99 0.495 0.99 0.495 2 1 C2 31.36 2 61.72 2 93 C-15.20601098 101.02947179 -15.20601098 101.02947179 -22.44140625 104.26953125 C-23.24954773 104.63267426 -24.05768921 104.99581726 -24.89031982 105.3699646 C-28.33080563 106.91567272 -31.7725985 108.45845826 -35.21444702 110.00112915 C-47.8315285 115.65181942 -47.8315285 115.65181942 -60.390625 121.4296875 C-61.41728271 121.90688232 -62.44394043 122.38407715 -63.50170898 122.87573242 C-65.32020305 123.72440511 -67.13510355 124.5808395 -68.94555664 125.4465332 C-74.66818197 128.11060601 -74.66818197 128.11060601 -78 127 C-75.05541958 120.85663077 -71.69680288 115.13254399 -68.0625 109.375 C-63.42149971 101.95216556 -58.87467261 94.48397626 -54.4375 86.9375 C-53.89939697 86.02355469 -53.36129395 85.10960937 -52.80688477 84.16796875 C-51.73023316 82.33884308 -50.65381468 80.50958016 -49.57763672 78.68017578 C-42.10626644 65.9874022 -34.44503987 53.4729277 -26.3671875 41.15625 C-22.77751943 35.67783829 -19.25970734 30.15487366 -15.75 24.625 C-10.52724765 16.39887682 -5.2818735 8.18830124 0 0 Z " fill="#6F8093" transform="translate(779,429)"/>
<path d="M0 0 C0.66 0 1.32 0 2 0 C7.23317353 5.23317353 10.74806883 11.40620919 14.46875 17.73828125 C17.09618756 22.19686929 19.84956848 26.56993912 22.625 30.9375 C27.28011047 38.27309924 31.90099818 45.62908519 36.5 53 C40.98091531 60.17886344 45.47424943 67.3493141 50 74.5 C55.88598592 83.8024256 61.73142881 93.12987519 67.546875 102.4765625 C69.59225038 105.76098479 71.65589596 109.03000504 73.765625 112.2734375 C74.15266602 112.87623535 74.53970703 113.4790332 74.93847656 114.10009766 C75.90900609 115.60857018 76.89140337 117.10939014 77.875 118.609375 C79.18520849 121.39356805 78.8731264 122.16682443 78 125 C68.94014698 121.52958073 60.08748302 117.57695567 51.21166992 113.66699219 C48.62817196 112.52892931 46.04368995 111.39312961 43.45898438 110.2578125 C28.95436926 103.87904743 14.47984079 97.4354848 0 91 C0 60.97 0 30.94 0 0 Z " fill="#324456" transform="translate(782,432)"/>
<path d="M0 0 C0 27.06 0 54.12 0 82 C-3 83 -3 83 -4.88745117 82.15820312 C-5.95443237 81.47661133 -5.95443237 81.47661133 -7.04296875 80.78125 C-7.85644775 80.26916992 -8.66992676 79.75708984 -9.50805664 79.22949219 C-10.39227295 78.65875977 -11.27648926 78.08802734 -12.1875 77.5 C-13.11876709 76.9112207 -14.05003418 76.32244141 -15.00952148 75.71582031 C-17.0000748 74.45709537 -18.98803649 73.19426437 -20.97363281 71.92773438 C-25.81943369 68.84105773 -30.69112121 65.79608539 -35.5625 62.75 C-36.53759521 62.13793701 -37.51269043 61.52587402 -38.51733398 60.89526367 C-44.18287329 57.34820289 -49.87682875 53.85397697 -55.60546875 50.41015625 C-56.24339859 50.02598541 -56.88132843 49.64181458 -57.53858948 49.2460022 C-60.65871142 47.36764257 -63.78231184 45.49557182 -66.91235352 43.63378906 C-68.6031604 42.61816895 -68.6031604 42.61816895 -70.328125 41.58203125 C-71.82714355 40.68834839 -71.82714355 40.68834839 -73.35644531 39.77661133 C-75.90972241 38.06067141 -77.91449509 36.25104573 -80 34 C-77.36237236 32.24158157 -74.90678068 30.95778196 -72.0390625 29.63671875 C-71.02457031 29.1684668 -70.01007812 28.70021484 -68.96484375 28.21777344 C-67.86269531 27.7127832 -66.76054688 27.20779297 -65.625 26.6875 C-64.47902344 26.1605957 -63.33304688 25.63369141 -62.15234375 25.09082031 C-51.04003898 19.99417675 -39.8905973 14.9812082 -28.72265625 10.0078125 C-24.57013931 8.15743173 -20.43134731 6.28292954 -16.30859375 4.3671875 C-15.47263672 3.98272461 -14.63667969 3.59826172 -13.77539062 3.20214844 C-12.27103967 2.50904104 -10.77064935 1.80723693 -9.27539062 1.09472656 C-5.43101652 -0.66330152 -4.2697872 -1.0674468 0 0 Z " fill="#3A4A5B" transform="translate(781,524)"/>
<path d="M0 0 C0.99 0.495 0.99 0.495 2 1 C-15.5546875 24.82421875 -15.5546875 24.82421875 -17.28100586 27.16699219 C-18.43557633 28.73396782 -19.59003434 30.30102632 -20.74438477 31.86816406 C-23.67203655 35.84242586 -26.60163392 39.81522526 -29.53515625 43.78515625 C-35.7740968 52.23257133 -41.97058997 60.70758409 -48.10571289 69.23071289 C-52.60420618 75.47222765 -57.16616539 81.66545014 -61.73876953 87.8527832 C-67.8913468 96.18789175 -73.95247004 104.58849088 -80 113 C-80.99 112.67 -81.98 112.34 -83 112 C-82.505 111.01 -82.505 111.01 -82 110 C-81.92589572 108.09084228 -81.9166121 106.17903586 -81.9375 104.26855469 C-81.946604 103.06680603 -81.95570801 101.86505737 -81.96508789 100.62689209 C-81.97660889 99.32173645 -81.98812988 98.01658081 -82 96.671875 C-82.00462547 93.92577217 -82.00024397 91.17969585 -81.99609375 88.43359375 C-81.98988968 84.09012171 -81.99514429 79.74794976 -82.05126953 75.40478516 C-82.09565996 71.89393343 -82.09602242 68.38547312 -82.06713867 64.87448883 C-82.06257614 62.89245268 -82.10414286 60.91048313 -82.14648438 58.92889404 C-82.02956467 50.11738696 -82.02956467 50.11738696 -79.05232239 46.88618469 C-76.75761504 45.33610381 -74.51755554 44.14372272 -72 43 C-70.78729023 42.28867569 -69.58098397 41.56609331 -68.38671875 40.82421875 C-67.15480186 40.10998153 -65.92166328 39.39784853 -64.6875 38.6875 C-57.54242525 34.52974232 -50.46656502 30.2632469 -43.4078064 25.96102905 C-38.57076059 23.01445432 -33.7276331 20.07787463 -28.8840332 17.14208984 C-27.61349656 16.371898 -26.34315576 15.60138301 -25.07299805 14.83056641 C-21.28034543 12.52970638 -17.48266351 10.23757685 -13.6774292 7.95758057 C-12.47977715 7.23824311 -11.28383586 6.51604932 -10.08966064 5.79095459 C-8.43672479 4.78798634 -6.77711721 3.79603789 -5.1171875 2.8046875 C-4.17472168 2.23733887 -3.23225586 1.66999023 -2.26123047 1.08544922 C-1.51502441 0.72725098 -0.76881836 0.36905273 0 0 Z " fill="#314256" transform="translate(862,574)"/>
<path d="M0 0 C2.38347867 2.38347867 3.08372364 4.4285199 4.3125 7.5625 C14.74556387 33.05202632 34.31976361 46.58511498 59 57 C64.32374148 59.08413627 69.75308987 60.85520846 75.1875 62.625 C75.93680786 62.87268127 76.68611572 63.12036255 77.45812988 63.37554932 C92.78465242 68.44160992 108.25739847 73.01461744 123.77416992 77.45947266 C170.32268559 90.86216865 170.32268559 90.86216865 179.5 106.875 C181.43450906 111.20219133 181.38824763 115.34102849 181 120 C180.0925 119.154375 179.185 118.30875 178.25 117.4375 C170.5908143 110.97648394 162.35093226 106.91319177 152.953125 103.6875 C152.08542984 103.38703262 151.21773468 103.08656525 150.32374573 102.7769928 C140.28898916 99.34845144 130.12176807 96.38447873 119.9375 93.4375 C116.21660681 92.35573576 112.4966272 91.27087931 108.77734375 90.18359375 C107.87568481 89.92003082 106.97402588 89.6564679 106.04504395 89.38491821 C99.88378187 87.57519865 93.74502319 85.70177545 87.62109375 83.76953125 C86.86545639 83.53125107 86.10981903 83.29297089 85.33128357 83.04747009 C66.44357142 77.03793002 46.29812986 69.94850057 31 57 C29.73349609 55.97326172 29.73349609 55.97326172 28.44140625 54.92578125 C11.88056162 40.88561313 2.74606748 21.3224063 0 0 Z " fill="#DB8615" transform="translate(390,344)"/>
<path d="M0 0 C1.05292236 0.00491455 2.10584473 0.0098291 3.19067383 0.01489258 C20.28241414 0.27042347 38.40203185 4.08669685 51.2421875 16.12109375 C57.38221516 22.66957819 61.7223836 30.26404858 62.3125 39.3125 C61.3225 38.44625 60.3325 37.58 59.3125 36.6875 C39.28609316 19.60259759 17.15671803 16.60630162 -8.6875 18.3125 C-20.22986909 19.94149694 -30.80324515 25.17934269 -38.1875 34.3125 C-41.98517786 39.86459805 -42.88122534 45.72792365 -43.6875 52.3125 C-48.80427913 48.25436483 -50.26233049 42.87265434 -51.01171875 36.59765625 C-51.36519254 27.90707648 -48.89880572 21.74853789 -43.4375 15.0625 C-32.16615647 3.0014445 -15.85094905 -0.08794046 0 0 Z " fill="#DF8F18" transform="translate(506.6875,277.6875)"/>
<path d="M0 0 C13.50298757 12.82488994 20.06105975 33.81138601 21 52 C21.07605469 53.10085938 21.15210938 54.20171875 21.23046875 55.3359375 C21.30201172 57.05683594 21.30201172 57.05683594 21.375 58.8125 C21.42398438 59.87082031 21.47296875 60.92914063 21.5234375 62.01953125 C20.97525644 65.14089054 20.19385556 66.77160679 17.88223267 68.94725037 C13.51892233 71.38768902 8.07599578 70.70484934 3.21875 70.6640625 C1.97250854 70.66884613 0.72626709 70.67362976 -0.55773926 70.67855835 C-3.86390982 70.68282782 -7.16890061 70.66274459 -10.47491455 70.63476562 C-12.49846878 70.62500738 -14.52093898 70.63473053 -16.54443359 70.65185547 C-20.43638353 70.68274773 -24.32673315 70.6790018 -28.21875 70.6640625 C-29.42406372 70.67418365 -30.62937744 70.68430481 -31.87121582 70.69473267 C-41.16145303 70.56454157 -41.16145303 70.56454157 -44.21362305 67.57373047 C-44.80312744 66.72439941 -45.39263184 65.87506836 -46 65 C-46.44988281 64.3915625 -46.89976562 63.783125 -47.36328125 63.15625 C-49.59318527 59.26538866 -50 57.66711812 -50 53 C-29.54 53 -9.08 53 12 53 C11.4233664 39.62679322 11.4233664 39.62679322 9.25 26.6875 C8.99210693 25.5742334 8.99210693 25.5742334 8.72900391 24.43847656 C7.38423452 18.91834766 5.52180042 13.74812575 3.1484375 8.578125 C1.89751427 5.76992998 0.93301689 2.92744748 0 0 Z " fill="#E09119" transform="translate(621,271)"/>
<path d="M0 0 C2.22643345 0.01071923 4.4520575 0.00002842 6.6784668 -0.01269531 C20.36056506 -0.02814286 33.64980617 1.21176134 46.85620117 5.01074219 C47.79028809 5.27459717 48.724375 5.53845215 49.68676758 5.81030273 C67.01089904 10.82628125 93.37600386 19.78522224 103.14526367 36.58496094 C103.46624023 37.41447266 103.46624023 37.41447266 103.79370117 38.26074219 C102.47370117 37.60074219 101.15370117 36.94074219 99.79370117 36.26074219 C100.78370117 37.58074219 101.77370117 38.90074219 102.79370117 40.26074219 C99.35612422 38.78196471 97.18887979 36.82029861 94.54370117 34.19824219 C66.59559251 8.67148215 23.8432347 4.52985444 -12.16503906 6.14422607 C-43.12114681 7.91121596 -74.1506839 17.67832117 -96.20629883 40.26074219 C-102.28691838 47.33866081 -106.88573152 54.54579602 -110.20629883 63.26074219 C-110.56336914 64.17082031 -110.92043945 65.08089844 -111.28833008 66.01855469 C-116.11601261 79.29016135 -117.61418627 93.23379987 -118.20629883 107.26074219 C-118.53629883 107.26074219 -118.86629883 107.26074219 -119.20629883 107.26074219 C-120.04931972 76.28620931 -120.04931972 76.28620931 -115.20629883 64.26074219 C-114.93785156 63.58543457 -114.6694043 62.91012695 -114.39282227 62.21435547 C-104.02947756 36.73062688 -85.06190875 21.19053951 -60.20629883 10.26074219 C-50.5466912 6.324446 -40.49488935 3.86843534 -30.20629883 2.26074219 C-28.62449829 2.00478271 -28.62449829 2.00478271 -27.01074219 1.74365234 C-17.95241903 0.39273917 -9.14442855 -0.05211072 0 0 Z " fill="#FEF092" transform="translate(507.206298828125,221.7392578125)"/>
<path d="M0 0 C2.37549258 1.12668887 4.594097 2.36206135 6.84228516 3.73217773 C16.00158766 9.28524891 25.19280418 12.83456021 35.375 16.0625 C36.98266005 16.5849552 38.58999679 17.10840625 40.19702148 17.6328125 C48.77391556 20.41513065 57.38645494 23.04288988 66.0625 25.5 C75.35895907 28.13281524 84.53799884 31.06847947 93.69088745 34.15917969 C95.19617066 34.66655751 96.70273231 35.17016288 98.21072388 35.66943359 C108.97840758 39.24411173 118.98325881 43.68105463 129 49 C129.64877609 49.34129944 130.29755219 49.68259888 130.96598816 50.03424072 C139.87325813 54.72789029 146.90522126 59.93417954 154 67 C151 67 151 67 148 65 C148.99 66.32 149.98 67.64 151 69 C147.47309589 67.43431827 144.75276213 65.28224227 141.75 62.875 C134.70311811 57.44451656 127.07316138 53.66715065 119 50 C117.81019531 49.44957031 116.62039063 48.89914062 115.39453125 48.33203125 C95.76916013 39.6116645 74.52621948 33.84557715 53.9375 27.875 C45.03486008 25.2828819 36.23943461 22.47531133 27.5 19.375 C26.50347412 19.02679199 25.50694824 18.67858398 24.48022461 18.31982422 C15.15059453 14.93770509 6.35245904 10.75631372 -1 4 C-0.67 2.68 -0.34 1.36 0 0 Z " fill="#FEEB7F" transform="translate(465,335)"/>
<path d="M0 0 C2.2795733 -0.00216942 4.55864774 -0.0203294 6.83813477 -0.03930664 C20.63963725 -0.09439575 33.9813115 1.10147697 47.30883789 4.93530273 C48.2429248 5.19915771 49.17701172 5.4630127 50.1394043 5.73486328 C67.46353576 10.7508418 93.82864058 19.70978279 103.59790039 36.50952148 C103.91887695 37.3390332 103.91887695 37.3390332 104.24633789 38.18530273 C102.92633789 37.52530273 101.60633789 36.86530273 100.24633789 36.18530273 C101.23633789 37.50530273 102.22633789 38.82530273 103.24633789 40.18530273 C99.80876094 38.70652526 97.64151651 36.74485916 94.99633789 34.12280273 C64.83674227 6.57615299 20.54165874 5.71898406 -17.75366211 5.18530273 C-17.75366211 4.85530273 -17.75366211 4.52530273 -17.75366211 4.18530273 C-15.44366211 4.18530273 -13.13366211 4.18530273 -10.75366211 4.18530273 C-10.75366211 3.52530273 -10.75366211 2.86530273 -10.75366211 2.18530273 C-12.45522461 2.43280273 -12.45522461 2.43280273 -14.19116211 2.68530273 C-18.72426505 3.26106357 -23.19113449 3.28035539 -27.75366211 3.18530273 C-19.58431884 -1.25379826 -9.08108679 -0.0009629 0 0 Z " fill="#FEF29C" transform="translate(506.753662109375,221.814697265625)"/>
<path d="M0 0 C0 0.99 0 1.98 0 3 C-1.33333333 4.33333333 -2.66666667 5.66666667 -4 7 C-4 7.99 -4 8.98 -4 10 C-17.29555159 22.12241469 -39.47654672 23.81079038 -56.5859375 23.28515625 C-72.92309832 22.42245598 -90.01733636 18.38613091 -103 8 C-104.38015032 6.37189047 -105.72689708 4.71311544 -107 3 C-106.34 3 -105.68 3 -105 3 C-104.67 2.34 -104.34 1.68 -104 1 C-103.37996094 1.43570312 -102.75992187 1.87140625 -102.12109375 2.3203125 C-87.02173406 12.47446705 -72.02581397 16.37470105 -53.97045898 16.37060547 C-51.83299744 16.37495826 -49.69764256 16.41133309 -47.56054688 16.44921875 C-31.30981684 16.58137657 -13.39839658 12.86147967 -1.328125 1.35546875 C-0.67070313 0.68451172 -0.67070313 0.68451172 0 0 Z " fill="#FEE262" transform="translate(565,485)"/>
<path d="M0 0 C10.56 0 21.12 0 32 0 C32 48.18 32 96.36 32 146 C21.77 146 11.54 146 1 146 C1 113.33 1 80.66 1 47 C1.33 47 1.66 47 2 47 C2 79.34 2 111.68 2 145 C11.24 145 20.48 145 30 145 C30 97.81 30 50.62 30 2 C20.43 2 10.86 2 1 2 C1 7.28 1 12.56 1 18 C0.67 18 0.34 18 0 18 C0 12.06 0 6.12 0 0 Z " fill="#1B2D44" transform="translate(663,745)"/>
<path d="M0 0 C21.12 0 42.24 0 64 0 C64.495 2.475 64.495 2.475 65 5 C43.22 5 21.44 5 -1 5 C-0.67 3.35 -0.34 1.7 0 0 Z " fill="#FEE973" transform="translate(379,448)"/>
<path d="M0 0 C2.74835174 0.01075006 5.49605217 0.00000922 8.24438477 -0.01269531 C22.44022191 -0.02474247 36.41741031 0.58969483 50.18383789 4.26074219 C50.18383789 4.59074219 50.18383789 4.92074219 50.18383789 5.26074219 C47.3085772 5.11908888 44.43370253 4.97255686 41.55883789 4.82324219 C40.7505957 4.78392578 39.94235352 4.74460938 39.10961914 4.70410156 C34.72220285 4.47224623 30.51704076 4.01264757 26.18383789 3.26074219 C18.58144135 2.26410507 11.03214808 2.06828623 3.37133789 2.07324219 C1.61466797 2.07336304 1.61466797 2.07336304 -0.17749023 2.07348633 C-17.72879902 1.929292 -17.72879902 1.929292 -34.81616211 5.26074219 C-36.48282878 5.26074219 -38.14949544 5.26074219 -39.81616211 5.26074219 C-43.69935117 5.96065841 -47.53540487 6.87006844 -51.37866211 7.76074219 C-53.0512207 8.14746094 -53.0512207 8.14746094 -54.75756836 8.54199219 C-60.5224174 9.8966949 -66.1589095 11.50986297 -71.81616211 13.26074219 C-72.90026367 13.58816406 -73.98436523 13.91558594 -75.10131836 14.25292969 C-94.74230287 20.45084646 -115.15547497 29.40548234 -131.73803711 41.75292969 C-134.03660259 43.42068585 -136.30155621 44.93682716 -138.81616211 46.26074219 C-139.47616211 45.93074219 -140.13616211 45.60074219 -140.81616211 45.26074219 C-102.26962921 13.90710299 -48.84548089 -0.22631783 0 0 Z " fill="#E28F17" transform="translate(506.816162109375,152.7392578125)"/>
<path d="M0 0 C1.20857666 0.00008057 2.41715332 0.00016113 3.66235352 0.00024414 C15.60096802 0.07529995 27.73999211 0.6061414 39.4375 3.1875 C39.1075 3.8475 38.7775 4.5075 38.4375 5.1875 C37.37160645 5.04675049 36.30571289 4.90600098 35.20751953 4.76098633 C23.54660198 3.2985 12.05776253 2.82498634 0.3125 2.875 C-1.02912704 2.87773422 -1.02912704 2.87773422 -2.39785767 2.88052368 C-16.62726314 2.92917691 -30.54757463 3.53511844 -44.5625 6.1875 C-45.47902344 6.35910645 -46.39554687 6.53071289 -47.33984375 6.70751953 C-73.65584815 11.81286088 -98.00229334 21.39423639 -121.20532227 34.73339844 C-121.99479248 35.18360352 -122.7842627 35.63380859 -123.59765625 36.09765625 C-124.2925415 36.50121338 -124.98742676 36.90477051 -125.70336914 37.32055664 C-127.5625 38.1875 -127.5625 38.1875 -130.5625 38.1875 C-103.7157079 19.17102226 -71.5545923 7.92654401 -39.1875 2.9375 C-38.13119385 2.77451416 -37.0748877 2.61152832 -35.98657227 2.44360352 C-24.00583156 0.68861767 -12.10322525 -0.00764897 0 0 Z " fill="#E29318" transform="translate(511.5625,164.8125)"/>
<path d="M0 0 C0.66 0.33 1.32 0.66 2 1 C-0.18213166 4.49141066 -2.42645701 7.5020047 -5.25 10.5 C-21.15256735 28.48423389 -25.0219057 52.82928322 -26 76 C-26.33 76 -26.66 76 -27 76 C-27.6619482 51.67849549 -26.24995459 28.35011941 -9.80859375 8.87109375 C-6.72932586 5.68541487 -3.44497102 2.78282075 0 0 Z " fill="#FEEC72" transform="translate(415,253)"/>
<path d="M0 0 C5.97966154 -0.43772686 9.86439321 0.85243238 15.1875 3.5 C15.9314502 3.8623877 16.67540039 4.22477539 17.44189453 4.59814453 C28.7038865 10.20850526 37.97479789 17.33012081 47 26 C46.67 26.66 46.34 27.32 46 28 C45.01 27.34 44.02 26.68 43 26 C43.99 27.32 44.98 28.64 46 30 C42.56242305 28.52122253 40.39517862 26.55955643 37.75 23.9375 C28.00285851 15.03482451 16.17402883 9.67773889 3.81640625 5.38671875 C1 4 1 4 0.08984375 1.83203125 C0.06019531 1.22746094 0.03054688 0.62289062 0 0 Z " fill="#FEF091" transform="translate(564,232)"/>
<path d="M0 0 C4.83133348 1.70292546 9.05746682 4.264485 13.4375 6.875 C14.17548828 7.30941406 14.91347656 7.74382813 15.67382812 8.19140625 C19.87074591 10.67598158 23.96964575 13.25348284 28 16 C24.23375329 17.25541557 22.62811066 16.37061958 19 15 C18.01 15.99 17.02 16.98 16 18 C16.556875 18.86625 16.556875 18.86625 17.125 19.75 C17.41375 20.4925 17.7025 21.235 18 22 C17.0546875 24.140625 17.0546875 24.140625 16 26 C13.89247958 23.10659406 11.78958921 20.20985356 9.6875 17.3125 C9.09259766 16.49587891 8.49769531 15.67925781 7.88476562 14.83789062 C0 3.95779504 0 3.95779504 0 0 Z " fill="#51688A" transform="translate(702,575)"/>
<path d="M0 0 C15.9736065 10.06847005 21.87044241 27.54313644 26 45 C27.0196739 49.8418871 27.12035137 54.45318348 27.0625 59.375 C27.05798828 60.11105469 27.05347656 60.84710938 27.04882812 61.60546875 C27.03715142 63.40368158 27.01922011 65.20185197 27 67 C26.67 67 26.34 67 26 67 C25.93006836 66.34104736 25.86013672 65.68209473 25.78808594 65.00317383 C24.21152852 43.65982225 24.21152852 43.65982225 15 25 C14.00157847 23.25145549 13.04306445 21.47954105 12.125 19.6875 C9.05943703 13.92889816 5.38161519 8.98118265 1.32421875 3.90234375 C0 2 0 2 0 0 Z " fill="#FDE650" transform="translate(606,256)"/>
<path d="M0 0 C-3.88864762 2.28561469 -8.16561822 3.12531081 -12.5 4.1875 C-33.9942202 9.67966171 -54.87811108 17.67878834 -73.796875 29.33984375 C-74.47790283 29.7562915 -75.15893066 30.17273926 -75.8605957 30.60180664 C-77.22873667 31.44051067 -78.5920275 32.28718637 -79.94995117 33.14233398 C-81.59746193 34.15561375 -83.29559743 35.08564807 -85 36 C-85.66 35.67 -86.32 35.34 -87 35 C-69.46874355 23.0669599 -50.99964113 14.00685507 -31 7 C-29.824375 6.57976562 -28.64875 6.15953125 -27.4375 5.7265625 C-9.11025842 -0.62115398 -9.11025842 -0.62115398 0 0 Z " fill="#FDD845" transform="translate(464,172)"/>
<path d="M0 0 C12.63275504 2.52174768 20.74591252 9.3941457 30 18 C27 18 27 18 24 16 C24.99 17.32 25.98 18.64 27 20 C23.40158874 18.40447803 20.57987093 16.18409154 17.5 13.75 C11.68338995 9.31590933 5.67471331 6.01782251 -1 3 C-0.67 2.01 -0.34 1.02 0 0 Z " fill="#FEE76A" transform="translate(589,384)"/>
<path d="M0 0 C3.07036896 1.46678517 5.99080761 3.14689824 8.92456055 4.86816406 C15.57091065 8.7950727 15.57091065 8.7950727 22.6875 11.75 C26.23683114 13.08937024 26.96212665 13.9708952 29 17 C17.28033155 17.16440417 7.43177345 11.94995783 -1 4 C-0.67 2.68 -0.34 1.36 0 0 Z " fill="#FEE86F" transform="translate(465,335)"/>
<path d="M0 0 C4.16138263 -0.08159574 7.9472484 0.01751476 12 1 C12.66 3.31 13.32 5.62 14 8 C16.97 8 19.94 8 23 8 C22.67 7.67 22.34 7.34 22 7 C21.63371323 5.00577205 21.29868656 3.00546689 21 1 C23.64 1.66 26.28 2.32 29 3 C26.83735988 6.98381075 24.28788824 9.88983545 21 13 C16.13752978 11.32163257 12.00929388 8.66807039 7.6875 5.9375 C6.94693359 5.47794922 6.20636719 5.01839844 5.44335938 4.54492188 C3.60937791 3.39382383 1.8019624 2.20060244 0 1 C0 0.67 0 0.34 0 0 Z " fill="#F7C32B" transform="translate(706,576)"/>
<path d="M0 0 C6.25659554 -0.35382126 11.66524378 0.93686958 17.6875 2.5625 C18.69917236 2.83280029 19.71084473 3.10310059 20.75317383 3.3815918 C34.6591959 7.18027289 48.01549215 11.95814328 61.1875 17.8125 C62.05592529 18.19768799 62.92435059 18.58287598 63.8190918 18.97973633 C64.61484619 19.34349365 65.41060059 19.70725098 66.23046875 20.08203125 C66.93582764 20.40405518 67.64118652 20.7260791 68.36791992 21.05786133 C70 22 70 22 71 24 C65.36597744 22.4300451 60.18134891 20.76338608 55 18 C52.67700273 16.95702163 50.35527884 15.96450175 48 15 C47.11957031 14.62875 46.23914063 14.2575 45.33203125 13.875 C35.77409842 9.99852534 25.99240424 7.48293655 16 5 C14.40873135 4.59944593 12.81758264 4.19841504 11.2265625 3.796875 C7.48663185 2.85531721 3.74419928 1.92442989 0 1 C0 0.67 0 0.34 0 0 Z " fill="#E29116" transform="translate(557,158)"/>
<path d="M0 0 C4 2 4 2 5.25 4.625 C5.4975 5.40875 5.745 6.1925 6 7 C5.34 6.67 4.68 6.34 4 6 C4 5.34 4 4.68 4 4 C3.34 4 2.68 4 2 4 C2 33.7 2 63.4 2 94 C1.67 94 1.34 94 1 94 C0.67 62.98 0.34 31.96 0 0 Z " fill="#1D3042" transform="translate(780,428)"/>
<path d="M0 0 C0.66 0.33 1.32 0.66 2 1 C1.73445313 2.07636719 1.46890625 3.15273438 1.1953125 4.26171875 C-2.01705469 17.46356063 -4.15515693 30.4158128 -5 44 C-5.33 44 -5.66 44 -6 44 C-6.87356342 11.90326414 -6.87356342 11.90326414 -2 1 C-1.34 0.67 -0.68 0.34 0 0 Z " fill="#FEE754" transform="translate(394,285)"/>
<path d="M0 0 C0.66 0.33 1.32 0.66 2 1 C-2.7943792 5.92922112 -7.80160216 10.50357559 -13 15 C-21.74231889 22.59527705 -29.86805388 30.76212672 -38 39 C-38 36 -38 36 -36.71484375 34.45703125 C-36.12832031 33.91433594 -35.54179687 33.37164062 -34.9375 32.8125 C-32.42095962 30.41103005 -30.09810599 27.98691322 -27.875 25.3125 C-19.68145432 15.83297181 -9.78559192 7.76572024 0 0 Z " fill="#E99F1E" transform="translate(357,204)"/>
<path d="M0 0 C9.18577611 3.37581714 15.1643133 8.19075697 22 15 C21.67 15.66 21.34 16.32 21 17 C20.01 16.34 19.02 15.68 18 15 C18.99 16.32 19.98 17.64 21 19 C17.44179214 17.47388791 15.04841927 15.33886858 12.25 12.6875 C8.0616838 8.83474623 3.92748626 5.82874211 -1 3 C-0.67 2.01 -0.34 1.02 0 0 Z " fill="#FEEC7C" transform="translate(589,243)"/>
<path d="M0 0 C0.721875 0.598125 1.44375 1.19625 2.1875 1.8125 C4.83884219 3.99914102 4.83884219 3.99914102 7.41796875 5.3046875 C10.44316422 7.29097318 12.04389556 9.36222841 14.125 12.3125 C15.11886719 13.69888672 15.11886719 13.69888672 16.1328125 15.11328125 C18.01155997 18.017872 19.65410522 20.81119702 21 24 C20.67 24.99 20.34 25.98 20 27 C17 21.25 17 21.25 17 19 C16.34 19 15.68 19 15 19 C14.67 19.66 14.34 20.32 14 21 C13.54109375 20.33613281 13.0821875 19.67226563 12.609375 18.98828125 C9.52498132 14.54960546 6.43817862 10.17493118 3 6 C0 2.25 0 2.25 0 0 Z " fill="#FEE051" transform="translate(612,398)"/>
<path d="M0 0 C2 3 2 3 3 10 C22.47 10 41.94 10 62 10 C62 10.33 62 10.66 62 11 C54.21156603 11.06943556 46.42320423 11.12277821 38.63453865 11.15543652 C35.0181296 11.17110901 31.40193192 11.19237553 27.78564453 11.22631836 C24.29730012 11.25885631 20.80915932 11.27684108 17.3206749 11.28463173 C15.33856231 11.29289269 13.35653191 11.31632087 11.37454224 11.33988953 C10.17344818 11.34011612 8.97235413 11.34034271 7.73486328 11.34057617 C6.67341095 11.34723801 5.61195862 11.35389984 4.51834106 11.36076355 C3.68728851 11.24171158 2.85623596 11.12265961 2 11 C-0.67927341 6.98108988 -0.15601248 4.75838077 0 0 Z " fill="#FEF554" transform="translate(569,313)"/>
<path d="M0 0 C0.66 0.33 1.32 0.66 2 1 C-6.90553054 6.99783491 -15.89824769 12.69024628 -25.375 17.75 C-26.18880127 18.1919873 -27.00260254 18.63397461 -27.84106445 19.08935547 C-28.60249756 19.48783691 -29.36393066 19.88631836 -30.1484375 20.296875 C-30.82052246 20.65104492 -31.49260742 21.00521484 -32.18505859 21.37011719 C-34 22 -34 22 -37 21 C-35.68 20.67 -34.36 20.34 -33 20 C-33 19.34 -33 18.68 -33 18 C-31.2984375 17.319375 -31.2984375 17.319375 -29.5625 16.625 C-25.95278308 15.42904194 -25.95278308 15.42904194 -25 13 C-22.70985999 12.11917692 -20.38652273 11.46696231 -18.03125 10.78125 C-15.81437525 10.19064164 -15.81437525 10.19064164 -15 8 C-14.01 8 -13.02 8 -12 8 C-11.67 7.34 -11.34 6.68 -11 6 C-9.2578125 5 -9.2578125 5 -7.125 4 C-4.55892982 2.78798161 -2.38096302 1.58730868 0 0 Z " fill="#FEBE20" transform="translate(671,634)"/>
<path d="M0 0 C6.77827678 6.08343251 8.30043275 15.36053316 10 24 C3.02221775 17.61733777 0.45416127 9.23461256 0 0 Z " fill="#DC8415" transform="translate(444,454)"/>
<path d="M0 0 C3 1 3 1 3.96582031 2.56640625 C4.25038086 3.22511719 4.53494141 3.88382813 4.828125 4.5625 C6.97004003 9.13191873 9.71138276 12.98838721 12.75 17 C13.25660156 17.67933594 13.76320313 18.35867188 14.28515625 19.05859375 C15.51783884 20.70992326 16.75811838 22.35557744 18 24 C17.0919838 25.13199353 16.17316174 26.25532363 15.25 27.375 C14.73953125 28.00148438 14.2290625 28.62796875 13.703125 29.2734375 C11.91800519 31.08312318 10.32050356 32.00117455 8 33 C8.44472656 32.55269531 8.88945313 32.10539063 9.34765625 31.64453125 C9.91355469 31.03996094 10.47945312 30.43539062 11.0625 29.8125 C11.63097656 29.22082031 12.19945312 28.62914062 12.78515625 28.01953125 C14.20763856 26.06070714 14.20763856 26.06070714 13.953125 23.67578125 C12.71337948 20.19534814 10.81574224 17.35794432 8.6875 14.375 C8.29626953 13.80265625 7.90503906 13.2303125 7.50195312 12.640625 C5.28179836 9.47423511 3.08813022 7.27583293 0 5 C-0.25 2.3125 -0.25 2.3125 0 0 Z " fill="#F5CC2B" transform="translate(699,574)"/>
<path d="M0 0 C5.63204936 1.67030972 10.13139234 4.3670524 15.09765625 7.44140625 C17.8300207 8.90871906 19.94937501 9.59138418 23 10 C23 10.66 23 11.32 23 12 C24.32 12.33 25.64 12.66 27 13 C27 13.66 27 14.32 27 15 C28.65 15 30.3 15 32 15 C32.495 16.485 32.495 16.485 33 18 C28.05242531 17.39853014 24.18808261 15.21390912 19.875 12.875 C19.12742432 12.47410156 18.37984863 12.07320312 17.60961914 11.66015625 C11.58249481 8.39278972 5.55583053 5.03187702 0 1 C0 0.67 0 0.34 0 0 Z " fill="#FEBE1D" transform="translate(354,638)"/>
<path d="M0 0 C4.05385937 1.80473829 6.86602486 4.45788476 10.09765625 7.44140625 C12.01883893 9.2044029 12.01883893 9.2044029 15 10 C15.99 11.485 15.99 11.485 17 13 C17.680625 13.165 18.36125 13.33 19.0625 13.5 C19.701875 13.665 20.34125 13.83 21 14 C21.33 14.99 21.66 15.98 22 17 C24.5452954 19.12734933 24.5452954 19.12734933 27.5625 21.1875 C28.57441406 21.90292969 29.58632813 22.61835937 30.62890625 23.35546875 C31.80259766 24.16951172 31.80259766 24.16951172 33 25 C28.98778693 25 26.86950244 23.0899995 23.75 20.8125 C23.14389893 20.37486328 22.53779785 19.93722656 21.91333008 19.48632812 C2.66502504 5.33005008 2.66502504 5.33005008 0 0 Z " fill="#FDC01F" transform="translate(315,608)"/>
<path d="M0 0 C3.96 0 7.92 0 12 0 C8.55067753 3.44932247 3.5401203 3.63438186 -1.125 4.625 C-2.65640625 4.96917969 -2.65640625 4.96917969 -4.21875 5.3203125 C-9.9411947 6.5560075 -15.14773925 7.26664977 -21 7 C-21 6.67 -21 6.34 -21 6 C-19.95199219 5.81824219 -19.95199219 5.81824219 -18.8828125 5.6328125 C-17.51769531 5.38144531 -17.51769531 5.38144531 -16.125 5.125 C-15.22007812 4.96257813 -14.31515625 4.80015625 -13.3828125 4.6328125 C-10.83494012 4.16955297 -10.83494012 4.16955297 -9 2 C-6.31160615 1.73008094 -3.70858064 1.91262643 -1 2 C-0.67 1.34 -0.34 0.68 0 0 Z " fill="#FEBB1B" transform="translate(576,673)"/>
<path d="M0 0 C1.18492866 4.15184307 1.24230948 7.85397922 0 12 C-2.23831321 15.73052202 -4.93006204 18.93006204 -8 22 C-8.99 21.67 -9.98 21.34 -11 21 C-10.24332031 20.34644531 -9.48664062 19.69289063 -8.70703125 19.01953125 C-5.42143248 15.73393248 -4.15529462 12.02117329 -2.6875 7.6875 C-2.42388672 6.94693359 -2.16027344 6.20636719 -1.88867188 5.44335938 C-1.24641493 3.63336254 -0.62141274 1.81725857 0 0 Z " fill="#FEDE4E" transform="translate(571,471)"/>
<path d="M0 0 C11.22 0 22.44 0 34 0 C34 0.33 34 0.66 34 1 C32.35567294 1.36109542 30.7094792 1.71370076 29.0625 2.0625 C28.14597656 2.25972656 27.22945312 2.45695313 26.28515625 2.66015625 C25.15400391 2.82837891 25.15400391 2.82837891 24 3 C23.67 2.67 23.34 2.34 23 2 C21.65252916 1.76924918 20.29622435 1.58846937 18.9375 1.4375 C17.638125 1.293125 16.33875 1.14875 15 1 C14.67 1.66 14.34 2.32 14 3 C13.34 2.67 12.68 2.34 12 2 C10.906875 2.185625 9.81375 2.37125 8.6875 2.5625 C4.92280915 3.00915824 3.30337453 2.7017384 0 1 C0 0.67 0 0.34 0 0 Z " fill="#FEE047" transform="translate(493,227)"/>
<path d="M0 0 C5.06100475 2.24933545 8.89113951 5.41852138 12 10 C10.296875 10.71484375 10.296875 10.71484375 8 11 C5.640625 9.56640625 5.640625 9.56640625 3.25 7.5625 C2.05117188 6.57443359 2.05117188 6.57443359 0.828125 5.56640625 C0.22484375 5.04949219 -0.3784375 4.53257812 -1 4 C-0.67 2.68 -0.34 1.36 0 0 Z " fill="#FEE45B" transform="translate(465,335)"/>
<path d="M0 0 C0 7.59 0 15.18 0 23 C-0.99 23 -1.98 23 -3 23 C-3 15.74 -3 8.48 -3 1 C-1 0 -1 0 0 0 Z " fill="#D4D5D4" transform="translate(641,808)"/>
<path d="M0 0 C5.8845041 3.94291645 10.05708355 8.1154959 14 14 C13.67 14.66 13.34 15.32 13 16 C8.28883885 13.21613205 5.88389281 10.77333982 3 6 C2.4225 5.2575 1.845 4.515 1.25 3.75 C0 2 0 2 0 0 Z " fill="#FEE964" transform="translate(606,256)"/>
<path d="M0 0 C0.66 0.33 1.32 0.66 2 1 C4.71262116 1.2322646 7.40773126 1.41936235 10.125 1.5625 C11.25615234 1.62727539 11.25615234 1.62727539 12.41015625 1.69335938 C14.27321888 1.7994832 16.13658524 1.90025001 18 2 C18 2.33 18 2.66 18 3 C10.34125934 4.24063784 2.74288354 4.11179358 -5 4.0625 C-6.36067544 4.05747487 -7.72135267 4.05291376 -9.08203125 4.04882812 C-12.38806725 4.03710459 -15.69401001 4.02069427 -19 4 C-19 3.67 -19 3.34 -19 3 C-12.73 2.67 -6.46 2.34 0 2 C0 1.34 0 0.68 0 0 Z " fill="#FEB813" transform="translate(519,680)"/>
<path d="M0 0 C4.31226893 2.36752019 8.33715165 4.67013786 12 8 C12 8.66 12 9.32 12 10 C6.91463388 9.25215204 2.53623561 7.79227488 -0.875 3.8125 C-1.24625 3.214375 -1.6175 2.61625 -2 2 C-1.34 2 -0.68 2 0 2 C0 1.34 0 0.68 0 0 Z " fill="#FEDD52" transform="translate(460,486)"/>
<path d="M0 0 C1 3 1 3 -0.4375 5.9375 C-0.953125 6.948125 -1.46875 7.95875 -2 9 C-2 10.32 -2 11.64 -2 13 C-1.21625 13.268125 -0.4325 13.53625 0.375 13.8125 C3 15 3 15 5 18 C0.54834369 16.60090802 -1.96606091 14.52592921 -5 11 C-6.3125 8.1875 -6.3125 8.1875 -7 6 C-6.030625 5.38125 -5.06125 4.7625 -4.0625 4.125 C-0.97164638 2.34321154 -0.97164638 2.34321154 0 0 Z " fill="#F6D133" transform="translate(704,547)"/>
<path d="M0 0 C0.99 0.66 1.98 1.32 3 2 C-2.50159672 4.6060195 -8.06295355 6.82708028 -13.8125 8.8125 C-14.45840088 9.04348389 -15.10430176 9.27446777 -15.76977539 9.51245117 C-19.31005025 10.70606644 -21.45136482 11.09706204 -25 10 C-23.17662109 9.36771484 -23.17662109 9.36771484 -21.31640625 8.72265625 C-19.73171808 8.16942192 -18.14708552 7.61602828 -16.5625 7.0625 C-15.76005859 6.78470703 -14.95761719 6.50691406 -14.13085938 6.22070312 C-12.98520508 5.81948242 -12.98520508 5.81948242 -11.81640625 5.41015625 C-11.10943604 5.16402588 -10.40246582 4.91789551 -9.67407227 4.66430664 C-7.99317368 4.12532025 -7.99317368 4.12532025 -7 3 C-5.33382885 2.95936168 -3.66611905 2.957279 -2 3 C-2 2.34 -2 1.68 -2 1 C-1.34 0.67 -0.68 0.34 0 0 Z " fill="#FEB915" transform="translate(614,662)"/>
<path d="M0 0 C0.44730469 0.40992188 0.89460938 0.81984375 1.35546875 1.2421875 C4.73744485 4.25640074 7.579668 6.66050545 12 8 C11.67 9.32 11.34 10.64 11 12 C11.5775 12.2475 12.155 12.495 12.75 12.75 C15.3002997 14.16683317 17.01785701 15.87627537 19 18 C18.67 18.66 18.34 19.32 18 20 C11.40768484 14.60461357 5.36199421 8.62557891 0 2 C0 1.34 0 0.68 0 0 Z " fill="#FDC52A" transform="translate(292,584)"/>
<path d="M0 0 C7.81976557 3.49787363 11.95346835 11.30996447 15 19 C15.57995296 21.39657033 15.83890268 23.52984105 16 26 C12.10471204 22.73298429 12.10471204 22.73298429 11.625 19.375 C10.24419249 11.91863943 4.96909578 5.55369529 0 0 Z " fill="#D97D0F" transform="translate(553,291)"/>
<path d="M0 0 C-1.28913487 0.67154933 -2.58140204 1.33708859 -3.875 2 C-4.59429688 2.37125 -5.31359375 2.7425 -6.0546875 3.125 C-8 4 -8 4 -10 4 C-8.68374806 7.94875582 -6.94634602 8.54992713 -3.4375 10.6875 C-2.42558594 11.31011719 -1.41367187 11.93273437 -0.37109375 12.57421875 C0.41136719 13.04472656 1.19382812 13.51523437 2 14 C1.01 14.495 1.01 14.495 0 15 C-2.28120421 13.82528366 -4.39728952 12.61112263 -6.5625 11.25 C-7.16513672 10.8890625 -7.76777344 10.528125 -8.38867188 10.15625 C-12.87422649 7.37732054 -12.87422649 7.37732054 -14 4 C-12.23494565 3.13395466 -10.46271926 2.28251358 -8.6875 1.4375 C-7.70136719 0.96183594 -6.71523438 0.48617187 -5.69921875 -0.00390625 C-3 -1 -3 -1 0 0 Z " fill="#26365A" transform="translate(715,553)"/>
<path d="M0 0 C1.35123963 4.05371889 0.1614461 5.33757046 -1.6875 9.125 C-3.96028006 13.8393048 -6.13039992 18.55903139 -8.140625 23.390625 C-9 25 -9 25 -11 26 C-10.39458825 22.30090527 -9.34742345 19.28645598 -7.71484375 15.91796875 C-7.26689453 14.98662109 -6.81894531 14.05527344 -6.35742188 13.09570312 C-5.88884766 12.13599609 -5.42027344 11.17628906 -4.9375 10.1875 C-4.46505859 9.20845703 -3.99261719 8.22941406 -3.50585938 7.22070312 C-2.34229316 4.81129833 -1.17353704 2.40455993 0 0 Z " fill="#EDA520" transform="translate(290,282)"/>
<path d="M0 0 C0.66 0.33 1.32 0.66 2 1 C1.45207105 5.6182583 -0.58964488 8.98149647 -3.0625 12.8125 C-3.43955078 13.40998047 -3.81660156 14.00746094 -4.20507812 14.62304688 C-5.12989566 16.08636577 -6.06402065 17.54379523 -7 19 C-7.33 18.01 -7.66 17.02 -8 16 C-6.0625 12.8125 -6.0625 12.8125 -4 10 C-4.66 10 -5.32 10 -6 10 C-6 9.34 -6 8.68 -6 8 C-5.01 7.67 -4.02 7.34 -3 7 C-2.67 6.01 -2.34 5.02 -2 4 C-1.67 4.33 -1.34 4.66 -1 5 C-0.67 3.35 -0.34 1.7 0 0 Z " fill="#F7CF2F" transform="translate(727,506)"/>
<path d="M0 0 C0.66 0.33 1.32 0.66 2 1 C-0.31 3.97 -2.62 6.94 -5 10 C-5.33 9.34 -5.66 8.68 -6 8 C-6.99 7.34 -7.98 6.68 -9 6 C-6.03 4.02 -3.06 2.04 0 0 Z " fill="#27384D" transform="translate(862,574)"/>
<path d="M0 0 C2.78456726 0.42204314 5.56565699 0.67635415 8.37109375 0.921875 C9.79421875 1.04755859 9.79421875 1.04755859 11.24609375 1.17578125 C11.94734375 1.23636719 12.64859375 1.29695312 13.37109375 1.359375 C13.37109375 1.689375 13.37109375 2.019375 13.37109375 2.359375 C10.47519723 2.38643945 7.5795558 2.40624529 4.68359375 2.421875 C3.45866211 2.43444336 3.45866211 2.43444336 2.20898438 2.44726562 C-1.87389709 2.46379551 -5.64542332 2.38972598 -9.62890625 1.359375 C-6.35581679 -0.95906336 -3.84450163 -0.61046907 0 0 Z " fill="#FEBC1B" transform="translate(483.62890625,680.640625)"/>
<path d="M0 0 C4.16138263 -0.08159574 7.9472484 0.01751476 12 1 C12.66 2.98 13.32 4.96 14 7 C11.30000274 5.99714388 8.90221511 4.94037507 6.4375 3.4375 C4.21853522 2.12887975 2.50924843 1.46467564 0 1 C0 0.67 0 0.34 0 0 Z " fill="#FAC537" transform="translate(706,576)"/>
<path d="M0 0 C0.33 0 0.66 0 1 0 C1.19818283 6.70518586 1.30844801 12.65176798 -1 19 C-1.93619813 15.84493858 -2.1057123 13.03413498 -2.0625 9.75 C-2.05347656 8.85796875 -2.04445313 7.9659375 -2.03515625 7.046875 C-2.02355469 6.37140625 -2.01195312 5.6959375 -2 5 C-1.34 5 -0.68 5 0 5 C0 3.35 0 1.7 0 0 Z " fill="#F7C528" transform="translate(796,429)"/>
<path d="M0 0 C3.60002844 2.40001896 6.93787263 4.93787263 10 8 C9.34 8.66 8.68 9.32 8 10 C7.67 10.66 7.34 11.32 7 12 C5.82767315 10.3790787 4.6622923 8.75313167 3.5 7.125 C2.8503125 6.22007812 2.200625 5.31515625 1.53125 4.3828125 C0 2 0 2 0 0 Z " fill="#607180" transform="translate(703,575)"/>
<path d="M0 0 C1.85276347 3.39673303 2.99049196 6.86904604 4.125 10.5625 C4.47820312 11.69816406 4.83140625 12.83382813 5.1953125 14.00390625 C6 17 6 17 6 20 C5.34 20 4.68 20 4 20 C3.32550034 17.60612843 2.66023359 15.21030779 2 12.8125 C1.80921875 12.13896484 1.6184375 11.46542969 1.421875 10.77148438 C0.4174164 7.09444844 -0.23704741 3.8149818 0 0 Z " fill="#D6780F" transform="translate(379,477)"/>
<path d="M0 0 C3.03053987 1.1020145 5.74601416 2.40528751 8.5 4.0625 C11.30594731 5.71414076 13.72908654 6.60352564 17 7 C17 7.99 17 8.98 17 10 C12.90204273 9.35081865 9.69816108 7.16741553 6.25 5 C5.64800781 4.63132812 5.04601562 4.26265625 4.42578125 3.8828125 C2.93030434 2.95364998 1.46232105 1.98051585 0 1 C0 0.67 0 0.34 0 0 Z " fill="#F7D32C" transform="translate(708,577)"/>
<path d="M0 0 C0.33 0.66 0.66 1.32 1 2 C0.67 2.99 0.34 3.98 0 5 C1.97536745 4.65213292 1.97536745 4.65213292 4 4 C4.33 3.34 4.66 2.68 5 2 C5 2.99 5 3.98 5 5 C-1.625 9 -1.625 9 -5 9 C-4.3566152 7.686298 -3.71021785 6.37407102 -3.0625 5.0625 C-2.70285156 4.33160156 -2.34320312 3.60070312 -1.97265625 2.84765625 C-1 1 -1 1 0 0 Z " fill="#5C749D" transform="translate(706,547)"/>
<path d="M0 0 C-0.33 0.66 -0.66 1.32 -1 2 C-3.50390625 2.6328125 -3.50390625 2.6328125 -6.5625 3.125 C-8.08037109 3.37636719 -8.08037109 3.37636719 -9.62890625 3.6328125 C-10.80259766 3.81457031 -10.80259766 3.81457031 -12 4 C-12 3.01 -12 2.02 -12 1 C-10.56496445 0.63597631 -9.12683494 0.28413409 -7.6875 -0.0625 C-6.88699219 -0.25972656 -6.08648437 -0.45695312 -5.26171875 -0.66015625 C-3 -1 -3 -1 0 0 Z " fill="#FEDE49" transform="translate(443,122)"/>
<path d="M0 0 C2.64942024 1.11711744 5.29436488 2.24319023 7.9375 3.375 C9.06961914 3.85066406 9.06961914 3.85066406 10.22460938 4.3359375 C15.88671875 6.7734375 15.88671875 6.7734375 17 9 C5.5778781 5.81715576 5.5778781 5.81715576 1 3 C0.67 2.01 0.34 1.02 0 0 Z " fill="#E79A1C" transform="translate(611,173)"/>
<path d="M0 0 C4 2 4 2 5.25 4.625 C5.4975 5.40875 5.745 6.1925 6 7 C5.34 6.67 4.68 6.34 4 6 C4 5.34 4 4.68 4 4 C3.34 4 2.68 4 2 4 C2 7.63 2 11.26 2 15 C1.67 15 1.34 15 1 15 C0.67 10.05 0.34 5.1 0 0 Z " fill="#22304F" transform="translate(780,428)"/>
<path d="M0 0 C0 0.33 0 0.66 0 1 C-6.14778871 2.6277833 -11.64012196 3.20190089 -18 3 C-13.56679381 -1.43320619 -5.89626565 -0.10487429 0 0 Z " fill="#FCD946" transform="translate(483,169)"/>
<path d="M0 0 C0 0.66 0 1.32 0 2 C-8.03571429 4.27678571 -8.03571429 4.27678571 -12 3 C-8.62446616 -0.37553384 -4.59080647 -0.1311659 0 0 Z " fill="#FDDD48" transform="translate(471,116)"/>
<path d="M0 0 C3.63 0.66 7.26 1.32 11 2 C10.67 2.66 10.34 3.32 10 4 C5.91281305 4.24042276 2.82320557 3.42258812 -1 2 C-0.67 1.34 -0.34 0.68 0 0 Z " fill="#F4F4F3" transform="translate(208,827)"/>
<path d="M0 0 C0.33 0.66 0.66 1.32 1 2 C0.02616054 3.68208635 -0.97695052 5.34738161 -2 7 C-2.69579454 9.19130534 -2.69579454 9.19130534 -3 11 C-3.99 11 -4.98 11 -6 11 C-4.54955729 6.89041233 -2.48889248 3.56741255 0 0 Z " fill="#5A71A5" transform="translate(778,431)"/>
<path d="M0 0 C0.99 0.66 1.98 1.32 3 2 C0.03 3.32 -2.94 4.64 -6 6 C-6.66 5.34 -7.32 4.68 -8 4 C-7 3 -7 3 -4.4375 2.9375 C-3.2309375 2.9684375 -3.2309375 2.9684375 -2 3 C-2 2.34 -2 1.68 -2 1 C-1.34 0.67 -0.68 0.34 0 0 Z " fill="#FEBF24" transform="translate(614,662)"/>
<path d="M0 0 C4.28904235 1.5885342 6.32345526 4.43127368 9 8 C9 8.66 9 9.32 9 10 C8.34 10 7.68 10 7 10 C5.78125 8.50390625 5.78125 8.50390625 4.5 6.5625 C2.7134637 3.77468153 2.7134637 3.77468153 0 2 C0 1.34 0 0.68 0 0 Z " fill="#F2F3F2" transform="translate(244,772)"/>
<path d="M0 0 C0.598125 0.495 1.19625 0.99 1.8125 1.5 C3.97029994 3.28276418 3.97029994 3.28276418 7 3 C6.67 4.98 6.34 6.96 6 9 C0.42857143 3.85714286 0.42857143 3.85714286 0 0 Z " fill="#49618D" transform="translate(713,592)"/>
<path d="M0 0 C0.33 1.32 0.66 2.64 1 4 C0.01 4.33 -0.98 4.66 -2 5 C-2 6.32 -2 7.64 -2 9 C-3.98 9.99 -3.98 9.99 -6 11 C-4.54955729 6.89041233 -2.48889248 3.56741255 0 0 Z " fill="#5872A6" transform="translate(769,445)"/>
<path d="M0 0 C0.99 1.32 1.98 2.64 3 4 C3.66 2.68 4.32 1.36 5 0 C5 2.97 5 5.94 5 9 C1.7457985 6.16569547 0.4793247 4.31392226 0 0 Z " fill="#DD8311" transform="translate(458,321)"/>
<path d="M0 0 C1.23556641 0.01740234 1.23556641 0.01740234 2.49609375 0.03515625 C3.32238281 0.04417969 4.14867187 0.05320312 5 0.0625 C5.63808594 0.07410156 6.27617187 0.08570313 6.93359375 0.09765625 C6.60359375 1.08765625 6.27359375 2.07765625 5.93359375 3.09765625 C2.55859375 3.22265625 2.55859375 3.22265625 -1.06640625 3.09765625 C-1.72640625 2.43765625 -2.38640625 1.77765625 -3.06640625 1.09765625 C-2.06640625 0.09765625 -2.06640625 0.09765625 0 0 Z " fill="#3B4A5C" transform="translate(236.06640625,890.90234375)"/>
<path d="M0 0 C0.66 0.33 1.32 0.66 2 1 C-0.39509338 3.89932357 -2.31245243 4.50168276 -6 5 C-4.06745228 2.9754262 -2.36841312 1.57894208 0 0 Z M-8 5 C-7.34 5.33 -6.68 5.66 -6 6 C-7.98 6.99 -7.98 6.99 -10 8 C-10 7.34 -10 6.68 -10 6 C-9.34 5.67 -8.68 5.34 -8 5 Z " fill="#E8EAEA" transform="translate(845,568)"/>
<path d="M0 0 C0.99 0 1.98 0 3 0 C2.38545304 3.99455527 0.29353263 6.74466336 -2 10 C-2.33 9.34 -2.66 8.68 -3 8 C-2.34 7.01 -1.68 6.02 -1 5 C-0.61500109 3.34450469 -0.27206865 1.6777567 0 0 Z " fill="#F7DC30" transform="translate(756,459)"/>
<path d="M0 0 C0 0.66 0 1.32 0 2 C-3.2491277 4.3208055 -6.05879291 5.43697042 -10 6 C-7.35570758 3.077361 -4.105808 0 0 0 Z " fill="#FEDE47" transform="translate(438,242)"/>
<path d="M0 0 C-3.20380017 2.13586678 -4.01939967 2.23132175 -7.6875 2.125 C-8.89986328 2.09792969 -8.89986328 2.09792969 -10.13671875 2.0703125 C-11.05904297 2.03550781 -11.05904297 2.03550781 -12 2 C-12 1.34 -12 0.68 -12 0 C-7.66726186 -0.92844389 -4.33273814 -0.92844389 0 0 Z " fill="#FEDF47" transform="translate(490,229)"/>
<path d="M0 0 C0.144375 0.598125 0.28875 1.19625 0.4375 1.8125 C0.8872439 3.56150404 1.42892341 5.28677023 2 7 C0.02 7.33 -1.96 7.66 -4 8 C-2.87548273 5.0280615 -1.77706209 2.66559313 0 0 Z " fill="#5770A1" transform="translate(758,462)"/>
<path d="M0 0 C2.56616632 3.84924948 2.55097676 6.4349304 3 11 C1.5 10 1.5 10 0 8 C-0.27345479 5.28153765 -0.13491285 2.74322801 0 0 Z " fill="#FEE54D" transform="translate(569,313)"/>
<path d="M0 0 C3.375 0.3125 3.375 0.3125 7 1 C7.66 1.99 8.32 2.98 9 4 C4.545 3.01 4.545 3.01 0 2 C0 1.34 0 0.68 0 0 Z " fill="#E9EBEC" transform="translate(244,741)"/>
<path d="M0 0 C1.43088528 2.86177057 0.59991697 4.93375773 0 8 C-1.32 8 -2.64 8 -4 8 C-2.87548273 5.0280615 -1.77706209 2.66559313 0 0 Z " fill="#5873A0" transform="translate(711,539)"/>
<path d="M0 0 C0.99 0.33 1.98 0.66 3 1 C3.8125 2.9375 3.8125 2.9375 4 5 C3.34 5.66 2.68 6.32 2 7 C0.4375 5.75 0.4375 5.75 -1 4 C-0.6875 1.8125 -0.6875 1.8125 0 0 Z " fill="#EAA11E" transform="translate(628,283)"/>
<path d="M0 0 C1.32 0 2.64 0 4 0 C4 0.66 4 1.32 4 2 C5.32 2.33 6.64 2.66 8 3 C5.39417629 3.93065133 4.35801776 4.14917407 1.75 3.0625 C1.1725 2.711875 0.595 2.36125 0 2 C0 1.34 0 0.68 0 0 Z " fill="#FEC430" transform="translate(373,648)"/>
<path d="M0 0 C0.66 0.33 1.32 0.66 2 1 C0.35 2.65 -1.3 4.3 -3 6 C-3.66 5.67 -4.32 5.34 -5 5 C-5 4.34 -5 3.68 -5 3 C-2.625 1.3125 -2.625 1.3125 0 0 Z " fill="#1F2E42" transform="translate(862,574)"/>
</svg>
